<svg width="29" height="22" viewBox="0 0 29 22" fill="none" xmlns="http://www.w3.org/2000/svg">
<path d="M8.95117 21H5V5.76953L0.283203 7.23242V4.01953L8.52734 1.06641H8.95117V21ZM28.8301 12.7695C28.8301 15.5221 28.2604 17.6276 27.1211 19.0859C25.9818 20.5443 24.3138 21.2734 22.1172 21.2734C19.9479 21.2734 18.2891 20.5579 17.1406 19.127C15.9922 17.696 15.4043 15.6452 15.377 12.9746V9.31055C15.377 6.5306 15.9512 4.42057 17.0996 2.98047C18.2572 1.54036 19.9206 0.820312 22.0898 0.820312C24.2591 0.820312 25.918 1.53581 27.0664 2.9668C28.2148 4.38867 28.8027 6.4349 28.8301 9.10547V12.7695ZM24.8789 8.75C24.8789 7.10026 24.651 5.90169 24.1953 5.1543C23.7487 4.39779 23.0469 4.01953 22.0898 4.01953C21.1602 4.01953 20.472 4.37956 20.0254 5.09961C19.5879 5.81055 19.3555 6.92708 19.3281 8.44922V13.2891C19.3281 14.9115 19.5469 16.1191 19.9844 16.9121C20.431 17.696 21.1419 18.0879 22.1172 18.0879C23.0833 18.0879 23.7806 17.7096 24.209 16.9531C24.6374 16.1966 24.8607 15.0391 24.8789 13.4805V8.75Z" fill="#77B82A"/>
</svg>
