<svg width="30" height="21" viewBox="0 0 30 21" fill="none" xmlns="http://www.w3.org/2000/svg">
<path d="M8.95117 21H5V5.76953L0.283203 7.23242V4.01953L8.52734 1.06641H8.95117V21ZM29.0762 21H15.4316V18.293L21.8711 11.4297C22.7552 10.4635 23.4069 9.62044 23.8262 8.90039C24.2546 8.18034 24.4688 7.49674 24.4688 6.84961C24.4688 5.96549 24.2454 5.27279 23.7988 4.77148C23.3522 4.26107 22.7142 4.00586 21.8848 4.00586C20.9915 4.00586 20.2852 4.31576 19.7656 4.93555C19.2552 5.54622 19 6.35286 19 7.35547H15.0352C15.0352 6.14323 15.3223 5.03581 15.8965 4.0332C16.4798 3.0306 17.3001 2.24674 18.3574 1.68164C19.4147 1.10742 20.6133 0.820312 21.9531 0.820312C24.0039 0.820312 25.5944 1.3125 26.7246 2.29688C27.8639 3.28125 28.4336 4.67122 28.4336 6.4668C28.4336 7.45117 28.1784 8.45378 27.668 9.47461C27.1576 10.4954 26.2826 11.6849 25.043 13.043L20.5176 17.8145H29.0762V21Z" fill="#77B82A"/>
</svg>
