<svg width="45" height="22" viewBox="0 0 45 22" fill="none" xmlns="http://www.w3.org/2000/svg">
<path d="M8.95117 21H5V5.76953L0.283203 7.23242V4.01953L8.52734 1.06641H8.95117V21ZM16.0195 11.2109L17.168 1.09375H28.3242V4.38867H20.4082L19.916 8.66797C20.8548 8.16667 21.8529 7.91602 22.9102 7.91602C24.806 7.91602 26.2917 8.50391 27.3672 9.67969C28.4427 10.8555 28.9805 12.5007 28.9805 14.6152C28.9805 15.9004 28.707 17.0534 28.1602 18.0742C27.6224 19.0859 26.8477 19.8743 25.8359 20.4395C24.8242 20.9954 23.6302 21.2734 22.2539 21.2734C21.0508 21.2734 19.9342 21.0319 18.9043 20.5488C17.8743 20.0566 17.0586 19.3685 16.457 18.4844C15.8646 17.6003 15.5501 16.5931 15.5137 15.4629H19.4238C19.5059 16.2923 19.793 16.9395 20.2852 17.4043C20.7865 17.86 21.4382 18.0879 22.2402 18.0879C23.1335 18.0879 23.8216 17.7689 24.3047 17.1309C24.7878 16.4837 25.0293 15.5723 25.0293 14.3965C25.0293 13.2663 24.7513 12.4004 24.1953 11.7988C23.6393 11.1973 22.8509 10.8965 21.8301 10.8965C20.8913 10.8965 20.1302 11.1426 19.5469 11.6348L19.1641 11.9902L16.0195 11.2109ZM44.9082 12.7695C44.9082 15.5221 44.3385 17.6276 43.1992 19.0859C42.0599 20.5443 40.3919 21.2734 38.1953 21.2734C36.026 21.2734 34.3672 20.5579 33.2188 19.127C32.0703 17.696 31.4824 15.6452 31.4551 12.9746V9.31055C31.4551 6.5306 32.0293 4.42057 33.1777 2.98047C34.3353 1.54036 35.9987 0.820312 38.168 0.820312C40.3372 0.820312 41.9961 1.53581 43.1445 2.9668C44.293 4.38867 44.8809 6.4349 44.9082 9.10547V12.7695ZM40.957 8.75C40.957 7.10026 40.7292 5.90169 40.2734 5.1543C39.8268 4.39779 39.125 4.01953 38.168 4.01953C37.2383 4.01953 36.5501 4.37956 36.1035 5.09961C35.666 5.81055 35.4336 6.92708 35.4062 8.44922V13.2891C35.4062 14.9115 35.625 16.1191 36.0625 16.9121C36.5091 17.696 37.2201 18.0879 38.1953 18.0879C39.1615 18.0879 39.8587 17.7096 40.2871 16.9531C40.7155 16.1966 40.9388 15.0391 40.957 13.4805V8.75Z" fill="#77B82A"/>
</svg>
