<svg width="31" height="22" viewBox="0 0 31 22" fill="none" xmlns="http://www.w3.org/2000/svg">
<path d="M14.998 21H1.35352V18.293L7.79297 11.4297C8.67708 10.4635 9.32878 9.62044 9.74805 8.90039C10.1764 8.18034 10.3906 7.49674 10.3906 6.84961C10.3906 5.96549 10.1673 5.27279 9.7207 4.77148C9.27409 4.26107 8.63607 4.00586 7.80664 4.00586C6.91341 4.00586 6.20703 4.31576 5.6875 4.93555C5.17708 5.54622 4.92188 6.35286 4.92188 7.35547H0.957031C0.957031 6.14323 1.24414 5.03581 1.81836 4.0332C2.40169 3.0306 3.22201 2.24674 4.2793 1.68164C5.33659 1.10742 6.53516 0.820312 7.875 0.820312C9.92578 0.820312 11.5163 1.3125 12.6465 2.29688C13.7858 3.28125 14.3555 4.67122 14.3555 6.4668C14.3555 7.45117 14.1003 8.45378 13.5898 9.47461C13.0794 10.4954 12.2044 11.6849 10.9648 13.043L6.43945 17.8145H14.998V21ZM21.4512 9.29688H23.5566C24.5592 9.29688 25.3021 9.04622 25.7852 8.54492C26.2682 8.04362 26.5098 7.37826 26.5098 6.54883C26.5098 5.74674 26.2682 5.1224 25.7852 4.67578C25.3112 4.22917 24.6549 4.00586 23.8164 4.00586C23.0599 4.00586 22.4264 4.21549 21.916 4.63477C21.4056 5.04492 21.1504 5.58268 21.1504 6.24805H17.1992C17.1992 5.20898 17.4772 4.2793 18.0332 3.45898C18.5983 2.62956 19.3822 1.98242 20.3848 1.51758C21.3965 1.05273 22.5085 0.820312 23.7207 0.820312C25.8262 0.820312 27.4759 1.32617 28.6699 2.33789C29.8639 3.34049 30.4609 4.72591 30.4609 6.49414C30.4609 7.4056 30.1829 8.24414 29.627 9.00977C29.071 9.77539 28.3418 10.3633 27.4395 10.7734C28.5605 11.1745 29.3945 11.776 29.9414 12.5781C30.4974 13.3802 30.7754 14.3281 30.7754 15.4219C30.7754 17.1901 30.1283 18.6074 28.834 19.6738C27.5488 20.7402 25.8444 21.2734 23.7207 21.2734C21.7337 21.2734 20.1068 20.7493 18.8398 19.7012C17.582 18.653 16.9531 17.2676 16.9531 15.5449H20.9043C20.9043 16.2923 21.1823 16.903 21.7383 17.377C22.3034 17.8509 22.9961 18.0879 23.8164 18.0879C24.7552 18.0879 25.4889 17.8418 26.0176 17.3496C26.5553 16.8483 26.8242 16.1875 26.8242 15.3672C26.8242 13.3802 25.7305 12.3867 23.543 12.3867H21.4512V9.29688Z" fill="#77B82A"/>
</svg>
