<svg width="220" height="44" viewBox="0 0 220 44" fill="none" xmlns="http://www.w3.org/2000/svg">
<rect x="0.5" y="0.5" width="219" height="43" rx="1.5" stroke="#FFC50E"/>
<path d="M32.957 23.8418C32.834 24.8945 32.4443 25.708 31.7881 26.2822C31.1364 26.8519 30.2682 27.1367 29.1836 27.1367C28.0078 27.1367 27.0645 26.7152 26.3535 25.8721C25.6471 25.029 25.2939 23.901 25.2939 22.4883V21.5312C25.2939 20.6061 25.458 19.7926 25.7861 19.0908C26.1188 18.389 26.5882 17.8512 27.1943 17.4775C27.8005 17.0993 28.5023 16.9102 29.2998 16.9102C30.3571 16.9102 31.2048 17.2064 31.8428 17.7988C32.4808 18.3867 32.8522 19.2025 32.957 20.2461H31.6377C31.5238 19.4531 31.2754 18.8789 30.8926 18.5234C30.5143 18.168 29.9834 17.9902 29.2998 17.9902C28.4613 17.9902 27.8027 18.3001 27.3242 18.9199C26.8503 19.5397 26.6133 20.4215 26.6133 21.5654V22.5293C26.6133 23.6094 26.8389 24.4684 27.29 25.1064C27.7412 25.7445 28.3724 26.0635 29.1836 26.0635C29.9128 26.0635 30.471 25.8994 30.8584 25.5713C31.2503 25.2386 31.5101 24.6621 31.6377 23.8418H32.957ZM36.8604 23.8486H35.9375V27H34.666V19.6035H35.9375V22.7344H36.7646L39.2529 19.6035H40.7842L37.8584 23.1582L41.0303 27H39.4238L36.8604 23.8486ZM46.6836 27C46.6107 26.8542 46.5514 26.5944 46.5059 26.2207C45.918 26.8314 45.2161 27.1367 44.4004 27.1367C43.6712 27.1367 43.0719 26.9316 42.6025 26.5215C42.1377 26.1068 41.9053 25.5827 41.9053 24.9492C41.9053 24.179 42.1969 23.582 42.7803 23.1582C43.3682 22.7298 44.193 22.5156 45.2549 22.5156H46.4854V21.9346C46.4854 21.4925 46.3532 21.1416 46.0889 20.8818C45.8245 20.6175 45.4349 20.4854 44.9199 20.4854C44.4688 20.4854 44.0905 20.5993 43.7852 20.8271C43.4798 21.055 43.3271 21.3307 43.3271 21.6543H42.0557C42.0557 21.2852 42.1855 20.9297 42.4453 20.5879C42.7096 20.2415 43.0651 19.9681 43.5117 19.7676C43.9629 19.5671 44.4574 19.4668 44.9951 19.4668C45.8473 19.4668 46.515 19.681 46.998 20.1094C47.4811 20.5332 47.7318 21.1188 47.75 21.8662V25.2705C47.75 25.9495 47.8366 26.4896 48.0098 26.8906V27H46.6836ZM44.585 26.0361C44.9814 26.0361 45.3574 25.9336 45.7129 25.7285C46.0684 25.5234 46.3258 25.2568 46.4854 24.9287V23.4111H45.4941C43.9447 23.4111 43.1699 23.8646 43.1699 24.7715C43.1699 25.168 43.3021 25.4779 43.5664 25.7012C43.8307 25.9245 44.1702 26.0361 44.585 26.0361ZM55.3174 27H54.0459V24.3203C53.4899 24.4661 52.9202 24.5391 52.3369 24.5391C51.4118 24.5391 50.7054 24.3021 50.2178 23.8281C49.7347 23.3542 49.4886 22.6797 49.4795 21.8047V19.5967H50.7441V21.8457C50.7669 22.9486 51.2979 23.5 52.3369 23.5C52.9202 23.5 53.4899 23.4271 54.0459 23.2812V19.6035H55.3174V27ZM61.9141 27C61.8411 26.8542 61.7819 26.5944 61.7363 26.2207C61.1484 26.8314 60.4466 27.1367 59.6309 27.1367C58.9017 27.1367 58.3024 26.9316 57.833 26.5215C57.3682 26.1068 57.1357 25.5827 57.1357 24.9492C57.1357 24.179 57.4274 23.582 58.0107 23.1582C58.5986 22.7298 59.4235 22.5156 60.4854 22.5156H61.7158V21.9346C61.7158 21.4925 61.5837 21.1416 61.3193 20.8818C61.055 20.6175 60.6654 20.4854 60.1504 20.4854C59.6992 20.4854 59.321 20.5993 59.0156 20.8271C58.7103 21.055 58.5576 21.3307 58.5576 21.6543H57.2861C57.2861 21.2852 57.416 20.9297 57.6758 20.5879C57.9401 20.2415 58.2956 19.9681 58.7422 19.7676C59.1934 19.5671 59.6878 19.4668 60.2256 19.4668C61.0778 19.4668 61.7454 19.681 62.2285 20.1094C62.7116 20.5332 62.9622 21.1188 62.9805 21.8662V25.2705C62.9805 25.9495 63.0671 26.4896 63.2402 26.8906V27H61.9141ZM59.8154 26.0361C60.2119 26.0361 60.5879 25.9336 60.9434 25.7285C61.2988 25.5234 61.5563 25.2568 61.7158 24.9287V23.4111H60.7246C59.1751 23.4111 58.4004 23.8646 58.4004 24.7715C58.4004 25.168 58.5326 25.4779 58.7969 25.7012C59.0612 25.9245 59.4007 26.0361 59.8154 26.0361ZM70.3496 20.6289H67.8682V27H66.6035V20.6289H64.1699V19.6035H70.3496V20.6289ZM76.3652 19.6035H77.6299V27H76.3652V21.6064L72.9541 27H71.6895V19.6035H72.9541V25.0039L76.3652 19.6035ZM89.1826 27H87.918V20.6494H84.5137V27H83.2422V19.6035H89.1826V27ZM97.4609 23.3838C97.4609 24.5094 97.2035 25.4163 96.6885 26.1045C96.1735 26.7926 95.4762 27.1367 94.5967 27.1367C93.6989 27.1367 92.9925 26.8519 92.4775 26.2822V29.8438H91.2129V19.6035H92.3682L92.4297 20.4238C92.9447 19.7858 93.6602 19.4668 94.5762 19.4668C95.4648 19.4668 96.1667 19.8018 96.6816 20.4717C97.2012 21.1416 97.4609 22.0736 97.4609 23.2676V23.3838ZM96.1963 23.2402C96.1963 22.4062 96.0186 21.7477 95.6631 21.2646C95.3076 20.7816 94.82 20.54 94.2002 20.54C93.4346 20.54 92.8604 20.8796 92.4775 21.5586V25.0928C92.8558 25.7673 93.4346 26.1045 94.2139 26.1045C94.82 26.1045 95.3008 25.8652 95.6562 25.3867C96.0163 24.9036 96.1963 24.1882 96.1963 23.2402ZM102.144 27.1367C101.141 27.1367 100.325 26.8086 99.6963 26.1523C99.0674 25.4915 98.7529 24.6097 98.7529 23.5068V23.2744C98.7529 22.5407 98.8919 21.8867 99.1699 21.3125C99.4525 20.7337 99.8444 20.2826 100.346 19.959C100.852 19.6309 101.398 19.4668 101.986 19.4668C102.948 19.4668 103.695 19.7835 104.229 20.417C104.762 21.0505 105.028 21.9574 105.028 23.1377V23.6641H100.018C100.036 24.3932 100.248 24.9834 100.653 25.4346C101.063 25.8812 101.583 26.1045 102.212 26.1045C102.659 26.1045 103.037 26.0133 103.347 25.8311C103.657 25.6488 103.928 25.4072 104.16 25.1064L104.933 25.708C104.313 26.6605 103.383 27.1367 102.144 27.1367ZM101.986 20.5059C101.476 20.5059 101.048 20.6927 100.701 21.0664C100.355 21.4355 100.141 21.9551 100.059 22.625H103.764V22.5293C103.727 21.8867 103.554 21.39 103.244 21.0391C102.934 20.6836 102.515 20.5059 101.986 20.5059ZM110.565 21.627C110.565 21.2806 110.433 21.0072 110.169 20.8066C109.905 20.6016 109.542 20.499 109.082 20.499C108.635 20.499 108.262 20.6152 107.961 20.8477C107.665 21.0801 107.517 21.3535 107.517 21.668H106.259C106.259 21.0254 106.528 20.499 107.065 20.0889C107.603 19.6787 108.275 19.4736 109.082 19.4736C109.948 19.4736 110.622 19.6605 111.105 20.0342C111.589 20.4033 111.83 20.932 111.83 21.6201C111.83 21.9528 111.73 22.2581 111.529 22.5361C111.329 22.8141 111.044 23.0352 110.675 23.1992C111.536 23.4909 111.967 24.0651 111.967 24.9219C111.967 25.6009 111.705 26.1387 111.181 26.5352C110.657 26.9316 109.957 27.1299 109.082 27.1299C108.23 27.1299 107.526 26.9225 106.97 26.5078C106.418 26.0885 106.143 25.5234 106.143 24.8125H107.4C107.4 25.1725 107.56 25.4824 107.879 25.7422C108.202 25.9974 108.604 26.125 109.082 26.125C109.565 26.125 109.955 26.0133 110.251 25.79C110.547 25.5667 110.695 25.2773 110.695 24.9219C110.695 24.5072 110.57 24.2109 110.319 24.0332C110.073 23.8509 109.688 23.7598 109.164 23.7598H107.899V22.6934H109.273C110.135 22.6706 110.565 22.3151 110.565 21.627ZM116.677 27.1367C115.674 27.1367 114.858 26.8086 114.229 26.1523C113.601 25.4915 113.286 24.6097 113.286 23.5068V23.2744C113.286 22.5407 113.425 21.8867 113.703 21.3125C113.986 20.7337 114.378 20.2826 114.879 19.959C115.385 19.6309 115.932 19.4668 116.52 19.4668C117.481 19.4668 118.229 19.7835 118.762 20.417C119.295 21.0505 119.562 21.9574 119.562 23.1377V23.6641H114.551C114.569 24.3932 114.781 24.9834 115.187 25.4346C115.597 25.8812 116.116 26.1045 116.745 26.1045C117.192 26.1045 117.57 26.0133 117.88 25.8311C118.19 25.6488 118.461 25.4072 118.693 25.1064L119.466 25.708C118.846 26.6605 117.916 27.1367 116.677 27.1367ZM116.52 20.5059C116.009 20.5059 115.581 20.6927 115.234 21.0664C114.888 21.4355 114.674 21.9551 114.592 22.625H118.297V22.5293C118.26 21.8867 118.087 21.39 117.777 21.0391C117.467 20.6836 117.048 20.5059 116.52 20.5059ZM127.074 27H125.81V23.8418H122.412V27H121.141V19.6035H122.412V22.8096H125.81V19.6035H127.074V27ZM134.607 20.6289H132.126V27H130.861V20.6289H128.428V19.6035H134.607V20.6289ZM140.295 27C140.222 26.8542 140.163 26.5944 140.117 26.2207C139.529 26.8314 138.827 27.1367 138.012 27.1367C137.283 27.1367 136.683 26.9316 136.214 26.5215C135.749 26.1068 135.517 25.5827 135.517 24.9492C135.517 24.179 135.808 23.582 136.392 23.1582C136.979 22.7298 137.804 22.5156 138.866 22.5156H140.097V21.9346C140.097 21.4925 139.965 21.1416 139.7 20.8818C139.436 20.6175 139.046 20.4854 138.531 20.4854C138.08 20.4854 137.702 20.5993 137.396 20.8271C137.091 21.055 136.938 21.3307 136.938 21.6543H135.667C135.667 21.2852 135.797 20.9297 136.057 20.5879C136.321 20.2415 136.676 19.9681 137.123 19.7676C137.574 19.5671 138.069 19.4668 138.606 19.4668C139.459 19.4668 140.126 19.681 140.609 20.1094C141.092 20.5332 141.343 21.1188 141.361 21.8662V25.2705C141.361 25.9495 141.448 26.4896 141.621 26.8906V27H140.295ZM138.196 26.0361C138.593 26.0361 138.969 25.9336 139.324 25.7285C139.68 25.5234 139.937 25.2568 140.097 24.9287V23.4111H139.105C137.556 23.4111 136.781 23.8646 136.781 24.7715C136.781 25.168 136.913 25.4779 137.178 25.7012C137.442 25.9245 137.782 26.0361 138.196 26.0361ZM143.453 19.6035H144.725V25.9678H148.129V19.6035H149.394V25.9678H150.275L150.152 29.1943H149.018V27H143.453V19.6035ZM153.017 27H151.752V19.6035H153.017V27ZM151.649 17.6416C151.649 17.4365 151.711 17.2633 151.834 17.1221C151.962 16.9808 152.148 16.9102 152.395 16.9102C152.641 16.9102 152.827 16.9808 152.955 17.1221C153.083 17.2633 153.146 17.4365 153.146 17.6416C153.146 17.8467 153.083 18.0176 152.955 18.1543C152.827 18.291 152.641 18.3594 152.395 18.3594C152.148 18.3594 151.962 18.291 151.834 18.1543C151.711 18.0176 151.649 17.8467 151.649 17.6416ZM156.428 22.7412H158.205C158.301 21.7568 158.649 20.9661 159.251 20.3691C159.857 19.7676 160.62 19.4668 161.541 19.4668C162.507 19.4668 163.298 19.7926 163.913 20.4443C164.528 21.096 164.861 21.9437 164.911 22.9873L164.918 23.3838C164.918 24.1038 164.777 24.7533 164.494 25.332C164.212 25.9108 163.815 26.3574 163.305 26.6719C162.794 26.9818 162.211 27.1367 161.555 27.1367C160.602 27.1367 159.823 26.8268 159.217 26.207C158.611 25.5827 158.271 24.7738 158.198 23.7803H156.428V27H155.163V19.6035H156.428V22.7412ZM159.449 23.3838C159.449 24.2041 159.638 24.8626 160.017 25.3594C160.399 25.8561 160.912 26.1045 161.555 26.1045C162.197 26.1045 162.705 25.8516 163.079 25.3457C163.457 24.8398 163.646 24.1357 163.646 23.2334C163.646 22.4268 163.455 21.7705 163.072 21.2646C162.689 20.7588 162.179 20.5059 161.541 20.5059C160.912 20.5059 160.406 20.7542 160.023 21.251C159.641 21.7477 159.449 22.4587 159.449 23.3838Z" fill="#FFC50E"/>
<path d="M185.638 20.2373H184.559C184.423 20.2373 184.293 20.2968 184.198 20.4027C184.102 20.5085 184.048 20.6521 184.049 20.8016L184.056 25.0745C184.056 25.3852 184.285 25.637 184.566 25.637C184.848 25.637 185.077 25.3852 185.077 25.0745V23.7772C185.285 23.776 185.508 23.775 185.638 23.775C186.535 23.775 187.264 22.9815 187.264 22.0061C187.264 21.0308 186.535 20.2373 185.638 20.2373ZM185.638 22.65C185.507 22.65 185.283 22.651 185.074 22.6522C185.073 22.4127 185.072 22.1548 185.072 22.0061C185.072 21.8789 185.071 21.6126 185.071 21.3623H185.638C185.966 21.3623 186.244 21.6571 186.244 22.0061C186.244 22.3552 185.967 22.65 185.638 22.65Z" fill="#FFC50E"/>
<path d="M189.977 20.2373H188.911C188.776 20.2373 188.646 20.2967 188.55 20.4024C188.455 20.5081 188.401 20.6515 188.401 20.8009C188.401 20.8009 188.409 24.9351 188.409 24.9501C188.409 25.0993 188.464 25.2422 188.56 25.3473C188.655 25.4519 188.785 25.5106 188.919 25.5106H188.921C188.953 25.5104 189.713 25.5072 190.017 25.5014C191.17 25.4792 192.006 24.3742 192.006 22.8739C192.006 21.2969 191.191 20.2373 189.977 20.2373ZM189.999 24.3766C189.867 24.3791 189.64 24.3812 189.428 24.3827C189.426 23.8941 189.423 21.8701 189.423 21.3623H189.977C190.913 21.3623 190.986 22.5193 190.986 22.874C190.986 23.6124 190.681 24.3634 189.999 24.3766Z" fill="#FFC50E"/>
<path d="M195.369 21.3188C195.65 21.3188 195.879 21.067 195.879 20.7563C195.879 20.4457 195.65 20.1938 195.369 20.1938H193.809C193.527 20.1938 193.299 20.4457 193.299 20.7563V24.9998C193.299 25.3104 193.527 25.5623 193.809 25.5623C194.091 25.5623 194.319 25.3104 194.319 24.9998V23.4004H195.245C195.526 23.4004 195.755 23.1485 195.755 22.8379C195.755 22.5272 195.526 22.2754 195.245 22.2754H194.319V21.3188H195.369Z" fill="#FFC50E"/>
<path d="M196.87 17.8374H196.496V17.6769C196.496 16.9539 196.247 16.2667 195.796 15.7419L193.677 13.2774C193.198 12.7197 192.523 12.3999 191.826 12.3999H185.035C184.191 12.3999 183.505 13.1569 183.505 14.0874V17.8374H183.13C182.287 17.8374 181.6 18.5944 181.6 19.5249V26.2749C181.6 27.2054 182.287 27.9624 183.13 27.9624H183.505V29.9124C183.505 30.8429 184.191 31.5999 185.035 31.5999H194.965C195.809 31.5999 196.496 30.8429 196.496 29.9124V27.9624H196.87C197.714 27.9624 198.4 27.2054 198.4 26.2749V19.5249C198.4 18.5944 197.714 17.8374 196.87 17.8374ZM184.525 14.0874C184.525 13.7772 184.754 13.5249 185.035 13.5249H191.826C192.244 13.5249 192.649 13.7168 192.937 14.0514L195.056 16.5159C195.326 16.8308 195.475 17.2431 195.475 17.6769V17.8374H184.525V14.0874ZM195.475 29.9124C195.475 30.2226 195.247 30.4749 194.965 30.4749H185.035C184.754 30.4749 184.525 30.2226 184.525 29.9124V27.9624H195.475V29.9124ZM197.38 26.2749C197.38 26.5851 197.151 26.8374 196.87 26.8374H183.13C182.849 26.8374 182.62 26.5851 182.62 26.2749V19.5249C182.62 19.2147 182.849 18.9624 183.13 18.9624H196.87C197.151 18.9624 197.38 19.2147 197.38 19.5249V26.2749Z" fill="#FFC50E"/>
</svg>
