<svg width="440" height="44" viewBox="0 0 440 44" fill="none" xmlns="http://www.w3.org/2000/svg">
<rect width="440" height="44" rx="2" fill="#77B82A"/>
<path d="M166.639 19.7197C166.639 19.1911 166.445 18.7718 166.058 18.4619C165.675 18.1475 165.135 17.9902 164.438 17.9902C163.854 17.9902 163.364 18.152 162.968 18.4756C162.576 18.7946 162.38 19.1911 162.38 19.665H161.067C161.067 19.1364 161.211 18.6624 161.498 18.2432C161.79 17.8239 162.195 17.498 162.715 17.2656C163.234 17.0286 163.809 16.9102 164.438 16.9102C165.549 16.9102 166.413 17.1608 167.028 17.6621C167.644 18.1589 167.951 18.8516 167.951 19.7402C167.951 20.2005 167.81 20.6198 167.527 20.998C167.245 21.3763 166.851 21.6748 166.345 21.8936C167.516 22.2855 168.102 23.0625 168.102 24.2246C168.102 25.1178 167.769 25.8265 167.104 26.3506C166.438 26.8747 165.549 27.1367 164.438 27.1367C163.777 27.1367 163.175 27.0205 162.633 26.7881C162.095 26.5511 161.676 26.2161 161.375 25.7832C161.074 25.3503 160.924 24.8353 160.924 24.2383H162.236C162.236 24.7624 162.444 25.1999 162.858 25.5508C163.273 25.8971 163.799 26.0703 164.438 26.0703C165.153 26.0703 165.723 25.904 166.146 25.5713C166.575 25.2386 166.789 24.7988 166.789 24.252C166.789 23.0853 166.067 22.4906 164.622 22.4678H163.392V21.3877H164.615C165.281 21.374 165.784 21.2236 166.126 20.9365C166.468 20.6494 166.639 20.2438 166.639 19.7197ZM174.213 27C174.14 26.8542 174.081 26.5944 174.035 26.2207C173.447 26.8314 172.745 27.1367 171.93 27.1367C171.201 27.1367 170.601 26.9316 170.132 26.5215C169.667 26.1068 169.435 25.5827 169.435 24.9492C169.435 24.179 169.726 23.582 170.31 23.1582C170.897 22.7298 171.722 22.5156 172.784 22.5156H174.015V21.9346C174.015 21.4925 173.882 21.1416 173.618 20.8818C173.354 20.6175 172.964 20.4854 172.449 20.4854C171.998 20.4854 171.62 20.5993 171.314 20.8271C171.009 21.055 170.856 21.3307 170.856 21.6543H169.585C169.585 21.2852 169.715 20.9297 169.975 20.5879C170.239 20.2415 170.594 19.9681 171.041 19.7676C171.492 19.5671 171.987 19.4668 172.524 19.4668C173.377 19.4668 174.044 19.681 174.527 20.1094C175.01 20.5332 175.261 21.1188 175.279 21.8662V25.2705C175.279 25.9495 175.366 26.4896 175.539 26.8906V27H174.213ZM172.114 26.0361C172.511 26.0361 172.887 25.9336 173.242 25.7285C173.598 25.5234 173.855 25.2568 174.015 24.9287V23.4111H173.023C171.474 23.4111 170.699 23.8646 170.699 24.7715C170.699 25.168 170.831 25.4779 171.096 25.7012C171.36 25.9245 171.7 26.0361 172.114 26.0361ZM181.521 25.3252L184.036 19.6035H185.615V27H184.351V21.6201L181.958 27H181.083L178.643 21.5039V27H177.378V19.6035H179.019L181.521 25.3252ZM187.317 23.2334C187.317 22.5088 187.459 21.8571 187.741 21.2783C188.028 20.6995 188.425 20.2529 188.931 19.9385C189.441 19.624 190.022 19.4668 190.674 19.4668C191.681 19.4668 192.494 19.8154 193.114 20.5127C193.739 21.21 194.051 22.1374 194.051 23.2949V23.3838C194.051 24.1038 193.912 24.751 193.634 25.3252C193.36 25.8949 192.966 26.3392 192.451 26.6582C191.941 26.9772 191.353 27.1367 190.688 27.1367C189.685 27.1367 188.871 26.7881 188.247 26.0908C187.627 25.3936 187.317 24.4707 187.317 23.3223V23.2334ZM188.589 23.3838C188.589 24.2041 188.778 24.8626 189.156 25.3594C189.539 25.8561 190.049 26.1045 190.688 26.1045C191.33 26.1045 191.84 25.8538 192.219 25.3525C192.597 24.8467 192.786 24.1403 192.786 23.2334C192.786 22.4222 192.592 21.766 192.205 21.2646C191.822 20.7588 191.312 20.5059 190.674 20.5059C190.049 20.5059 189.546 20.7542 189.163 21.251C188.78 21.7477 188.589 22.4587 188.589 23.3838ZM195.753 27V19.6035H198.638C199.622 19.6035 200.376 19.7767 200.9 20.123C201.429 20.4648 201.693 20.9684 201.693 21.6338C201.693 21.9756 201.591 22.2855 201.386 22.5635C201.181 22.8369 200.878 23.0465 200.477 23.1924C200.923 23.2972 201.281 23.5023 201.55 23.8076C201.823 24.113 201.96 24.4775 201.96 24.9014C201.96 25.5804 201.709 26.0999 201.208 26.46C200.711 26.82 200.007 27 199.096 27H195.753ZM197.018 23.7529V25.9814H199.109C199.638 25.9814 200.032 25.8835 200.292 25.6875C200.556 25.4915 200.688 25.2158 200.688 24.8604C200.688 24.1221 200.146 23.7529 199.062 23.7529H197.018ZM197.018 22.7412H198.651C199.836 22.7412 200.429 22.3949 200.429 21.7021C200.429 21.0094 199.868 20.6517 198.747 20.6289H197.018V22.7412ZM208.42 19.6035H209.685V27H208.42V21.6064L205.009 27H203.744V19.6035H205.009V25.0039L208.42 19.6035ZM217.211 20.6289H214.729V27H213.465V20.6289H211.031V19.6035H217.211V20.6289ZM223.227 19.6035H224.491V27H223.227V21.6064L219.815 27H218.551V19.6035H219.815V25.0039L223.227 19.6035ZM229.933 25.9678L230.37 25.4277C230.862 24.7897 231.143 23.8327 231.211 22.5566L231.327 19.6035H236.092V25.9678H237.042V29.1738H235.777V27H230.616V29.1738H229.352L229.358 25.9678H229.933ZM231.43 25.9678H234.827V20.7725H232.551L232.476 22.5361C232.398 24.0081 232.049 25.152 231.43 25.9678ZM242.511 21.627C242.511 21.2806 242.379 21.0072 242.114 20.8066C241.85 20.6016 241.488 20.499 241.027 20.499C240.581 20.499 240.207 20.6152 239.906 20.8477C239.61 21.0801 239.462 21.3535 239.462 21.668H238.204C238.204 21.0254 238.473 20.499 239.011 20.0889C239.549 19.6787 240.221 19.4736 241.027 19.4736C241.893 19.4736 242.568 19.6605 243.051 20.0342C243.534 20.4033 243.775 20.932 243.775 21.6201C243.775 21.9528 243.675 22.2581 243.475 22.5361C243.274 22.8141 242.989 23.0352 242.62 23.1992C243.481 23.4909 243.912 24.0651 243.912 24.9219C243.912 25.6009 243.65 26.1387 243.126 26.5352C242.602 26.9316 241.902 27.1299 241.027 27.1299C240.175 27.1299 239.471 26.9225 238.915 26.5078C238.364 26.0885 238.088 25.5234 238.088 24.8125H239.346C239.346 25.1725 239.505 25.4824 239.824 25.7422C240.148 25.9974 240.549 26.125 241.027 26.125C241.51 26.125 241.9 26.0133 242.196 25.79C242.493 25.5667 242.641 25.2773 242.641 24.9219C242.641 24.5072 242.515 24.2109 242.265 24.0332C242.019 23.8509 241.633 23.7598 241.109 23.7598H239.845V22.6934H241.219C242.08 22.6706 242.511 22.3151 242.511 21.627ZM245.669 27V19.6035H248.554C249.538 19.6035 250.292 19.7767 250.816 20.123C251.345 20.4648 251.609 20.9684 251.609 21.6338C251.609 21.9756 251.507 22.2855 251.302 22.5635C251.097 22.8369 250.794 23.0465 250.393 23.1924C250.839 23.2972 251.197 23.5023 251.466 23.8076C251.739 24.113 251.876 24.4775 251.876 24.9014C251.876 25.5804 251.625 26.0999 251.124 26.46C250.627 26.82 249.923 27 249.012 27H245.669ZM246.934 23.7529V25.9814H249.025C249.554 25.9814 249.948 25.8835 250.208 25.6875C250.472 25.4915 250.604 25.2158 250.604 24.8604C250.604 24.1221 250.062 23.7529 248.978 23.7529H246.934ZM246.934 22.7412H248.567C249.752 22.7412 250.345 22.3949 250.345 21.7021C250.345 21.0094 249.784 20.6517 248.663 20.6289H246.934V22.7412ZM254.925 27H253.66V19.6035H254.925V27ZM253.558 17.6416C253.558 17.4365 253.619 17.2633 253.742 17.1221C253.87 16.9808 254.057 16.9102 254.303 16.9102C254.549 16.9102 254.736 16.9808 254.863 17.1221C254.991 17.2633 255.055 17.4365 255.055 17.6416C255.055 17.8467 254.991 18.0176 254.863 18.1543C254.736 18.291 254.549 18.3594 254.303 18.3594C254.057 18.3594 253.87 18.291 253.742 18.1543C253.619 18.0176 253.558 17.8467 253.558 17.6416ZM262.998 27H261.733V23.8418H258.336V27H257.064V19.6035H258.336V22.8096H261.733V19.6035H262.998V27ZM264.7 23.2334C264.7 22.5088 264.841 21.8571 265.124 21.2783C265.411 20.6995 265.808 20.2529 266.313 19.9385C266.824 19.624 267.405 19.4668 268.057 19.4668C269.064 19.4668 269.877 19.8154 270.497 20.5127C271.121 21.21 271.434 22.1374 271.434 23.2949V23.3838C271.434 24.1038 271.295 24.751 271.017 25.3252C270.743 25.8949 270.349 26.3392 269.834 26.6582C269.324 26.9772 268.736 27.1367 268.07 27.1367C267.068 27.1367 266.254 26.7881 265.63 26.0908C265.01 25.3936 264.7 24.4707 264.7 23.3223V23.2334ZM265.972 23.3838C265.972 24.2041 266.161 24.8626 266.539 25.3594C266.922 25.8561 267.432 26.1045 268.07 26.1045C268.713 26.1045 269.223 25.8538 269.602 25.3525C269.98 24.8467 270.169 24.1403 270.169 23.2334C270.169 22.4222 269.975 21.766 269.588 21.2646C269.205 20.7588 268.695 20.5059 268.057 20.5059C267.432 20.5059 266.929 20.7542 266.546 21.251C266.163 21.7477 265.972 22.4587 265.972 23.3838ZM275.323 23.8486H274.4V27H273.129V19.6035H274.4V22.7344H275.228L277.716 19.6035H279.247L276.321 23.1582L279.493 27H277.887L275.323 23.8486Z" fill="white"/>
</svg>
