<svg width="40" height="40" viewBox="0 0 40 40" fill="none" xmlns="http://www.w3.org/2000/svg">
<g opacity="0.6">
<path d="M30.375 32.3682H31.3125V33.3057H30.375V32.3682Z" fill="#77B82A"/>
<path d="M35.0626 32.3686V22.9936H31.7813V16.8998C31.7813 16.1244 31.1505 15.4935 30.3751 15.4935H27.0938V9.85507L29.2232 9.31126V6L6.38625 11.8321V15.1434L8.51557 14.5996V21.1185H4.9375V32.3685H4V33.3061H29.4376V32.3685H23.3438V25.806H31.7813V23.931H34.1251V32.3685H32.2501V33.3061H36V32.3685H35.0626V32.3686ZM17.2346 11.4054L7.32376 13.9365V12.5603L28.2857 7.20694V8.58313L18.1428 11.1734L18.3748 12.0818L26.1563 10.0945V15.4935H21.4688V22.9935H14.9063V21.1185H9.45314V14.3603L17.4666 12.3138L17.2346 11.4054ZM23.3438 24.8686H13.0313V23.9311H23.3438V24.8686ZM5.875 22.0561H13.9688V22.9936H12.0938V25.8061H13.0313V32.3686H12.0938V26.7436H6.81244V32.3686H5.875V22.0561ZM11.1563 29.5561V30.4936H7.74995V29.5561H11.1563ZM7.74995 28.6186V27.6811H11.1563V28.6186H7.74995ZM11.1563 31.4311V32.3686H7.74995V31.4311H11.1563ZM20.0625 32.3686H16.3125V28.1499H20.0625V32.3686ZM22.4063 32.3686H21V27.2124H15.375V32.3686H13.9687V25.8061H22.4062V32.3686H22.4063ZM30.8438 24.8686H24.2813V22.9936H22.4063V16.4311H30.3751C30.6335 16.4311 30.8438 16.6413 30.8438 16.8998V24.8686Z" fill="#77B82A"/>
<path d="M23.8125 21.5869H29.4375V17.8369H23.8125V21.5869ZM24.75 18.7744H28.5V20.6494H24.75V18.7744Z" fill="#77B82A"/>
<path d="M20.0627 15.4932H10.8594V19.7119H20.0628V15.4932H20.0627ZM11.7969 16.4307H14.9923V18.7744H11.7969V16.4307ZM19.1252 18.7744H15.9298V16.4306H19.1252V18.7744Z" fill="#77B82A"/>
<path d="M32.7188 27.2119H24.75V30.9619H32.7188V27.2119ZM25.6875 28.1494H28.2656V30.0244H25.6875V28.1494ZM31.7813 30.0244H29.2031V28.1494H31.7813V30.0244Z" fill="#77B82A"/>
<path d="M24.2812 11.5557H25.2188V12.4932H24.2812V11.5557Z" fill="#77B82A"/>
<path d="M24.2812 13.4307H25.2188V14.3682H24.2812V13.4307Z" fill="#77B82A"/>
</g>
</svg>
