<svg width="191" height="102" viewBox="0 0 191 102" fill="none" xmlns="http://www.w3.org/2000/svg">
<path d="M149.354 51.3536C149.549 51.1583 149.549 50.8417 149.354 50.6464L146.172 47.4645C145.976 47.2692 145.66 47.2692 145.464 47.4645C145.269 47.6597 145.269 47.9763 145.464 48.1716L148.293 51L145.464 53.8284C145.269 54.0237 145.269 54.3403 145.464 54.5355C145.66 54.7308 145.976 54.7308 146.172 54.5355L149.354 51.3536ZM123 51.5L149 51.5L149 50.5L123 50.5L123 51.5Z" fill="#FFC50E"/>
<path d="M10.1104 58.4404H8.80469V56H1.66113V58.4473H0.348633L0.341797 54.9268H1.15527C1.58366 54.4437 1.92318 53.7965 2.17383 52.9854C2.42904 52.1696 2.58854 51.2764 2.65234 50.3057L2.87109 46.0469H8.8252V54.9268H10.124L10.1104 58.4404ZM2.65234 54.9268H7.50586V47.127H4.13574L3.99219 50.0527C3.93294 51.1966 3.78027 52.1719 3.53418 52.9785C3.29264 53.7852 2.9987 54.4346 2.65234 54.9268ZM12.8584 56H11.5938V48.6035H12.8584V56ZM11.4912 46.6416C11.4912 46.4365 11.5527 46.2633 11.6758 46.1221C11.8034 45.9808 11.9902 45.9102 12.2363 45.9102C12.4824 45.9102 12.6693 45.9808 12.7969 46.1221C12.9245 46.2633 12.9883 46.4365 12.9883 46.6416C12.9883 46.8467 12.9245 47.0176 12.7969 47.1543C12.6693 47.291 12.4824 47.3594 12.2363 47.3594C11.9902 47.3594 11.8034 47.291 11.6758 47.1543C11.5527 47.0176 11.4912 46.8467 11.4912 46.6416ZM18.9561 50.627C18.9561 50.2806 18.8239 50.0072 18.5596 49.8066C18.2952 49.6016 17.9329 49.499 17.4727 49.499C17.026 49.499 16.6523 49.6152 16.3516 49.8477C16.0553 50.0801 15.9072 50.3535 15.9072 50.668H14.6494C14.6494 50.0254 14.9183 49.499 15.4561 49.0889C15.9938 48.6787 16.666 48.4736 17.4727 48.4736C18.3385 48.4736 19.013 48.6605 19.4961 49.0342C19.9792 49.4033 20.2207 49.932 20.2207 50.6201C20.2207 50.9528 20.1204 51.2581 19.9199 51.5361C19.7194 51.8141 19.4346 52.0352 19.0654 52.1992C19.9268 52.4909 20.3574 53.0651 20.3574 53.9219C20.3574 54.6009 20.0954 55.1387 19.5713 55.5352C19.0472 55.9316 18.3477 56.1299 17.4727 56.1299C16.6204 56.1299 15.9163 55.9225 15.3604 55.5078C14.8089 55.0885 14.5332 54.5234 14.5332 53.8125H15.791C15.791 54.1725 15.9505 54.4824 16.2695 54.7422C16.5931 54.9974 16.9941 55.125 17.4727 55.125C17.9557 55.125 18.3454 55.0133 18.6416 54.79C18.9378 54.5667 19.0859 54.2773 19.0859 53.9219C19.0859 53.5072 18.9606 53.2109 18.71 53.0332C18.4639 52.8509 18.0788 52.7598 17.5547 52.7598H16.29V51.6934H17.6641C18.5254 51.6706 18.9561 51.3151 18.9561 50.627ZM28.041 56H26.7764V52.8418H23.3789V56H22.1074V48.6035H23.3789V51.8096H26.7764V48.6035H28.041V56ZM34.6445 56C34.5716 55.8542 34.5124 55.5944 34.4668 55.2207C33.8789 55.8314 33.1771 56.1367 32.3613 56.1367C31.6322 56.1367 31.0329 55.9316 30.5635 55.5215C30.0986 55.1068 29.8662 54.5827 29.8662 53.9492C29.8662 53.179 30.1579 52.582 30.7412 52.1582C31.3291 51.7298 32.154 51.5156 33.2158 51.5156H34.4463V50.9346C34.4463 50.4925 34.3141 50.1416 34.0498 49.8818C33.7855 49.6175 33.3958 49.4854 32.8809 49.4854C32.4297 49.4854 32.0514 49.5993 31.7461 49.8271C31.4408 50.055 31.2881 50.3307 31.2881 50.6543H30.0166C30.0166 50.2852 30.1465 49.9297 30.4062 49.5879C30.6706 49.2415 31.026 48.9681 31.4727 48.7676C31.9238 48.5671 32.4183 48.4668 32.9561 48.4668C33.8083 48.4668 34.4759 48.681 34.959 49.1094C35.4421 49.5332 35.6927 50.1188 35.7109 50.8662V54.2705C35.7109 54.9495 35.7975 55.4896 35.9707 55.8906V56H34.6445ZM32.5459 55.0361C32.9424 55.0361 33.3184 54.9336 33.6738 54.7285C34.0293 54.5234 34.2868 54.2568 34.4463 53.9287V52.4111H33.4551C31.9056 52.4111 31.1309 52.8646 31.1309 53.7715C31.1309 54.168 31.263 54.4779 31.5273 54.7012C31.7917 54.9245 32.1312 55.0361 32.5459 55.0361ZM43.0801 49.6289H40.5986V56H39.334V49.6289H36.9004V48.6035H43.0801V49.6289ZM49.0957 48.6035H50.3604V56H49.0957V50.6064L45.6846 56H44.4199V48.6035H45.6846V54.0039L49.0957 48.6035ZM55.3574 55.1045C55.8086 55.1045 56.2028 54.9678 56.54 54.6943C56.8773 54.4209 57.0641 54.0791 57.1006 53.6689H58.2969C58.2741 54.0928 58.1283 54.4961 57.8594 54.8789C57.5905 55.2617 57.2305 55.5671 56.7793 55.7949C56.3327 56.0228 55.8587 56.1367 55.3574 56.1367C54.3503 56.1367 53.5482 55.8018 52.9512 55.1318C52.3587 54.4574 52.0625 53.5368 52.0625 52.3701V52.1582C52.0625 51.4382 52.1947 50.7979 52.459 50.2373C52.7233 49.6768 53.1016 49.2415 53.5938 48.9316C54.0905 48.6217 54.6761 48.4668 55.3506 48.4668C56.18 48.4668 56.8682 48.7152 57.415 49.2119C57.9665 49.7087 58.2604 50.3535 58.2969 51.1465H57.1006C57.0641 50.668 56.8818 50.276 56.5537 49.9707C56.2301 49.6608 55.8291 49.5059 55.3506 49.5059C54.708 49.5059 54.209 49.7383 53.8535 50.2031C53.5026 50.6634 53.3271 51.3311 53.3271 52.2061V52.4453C53.3271 53.2975 53.5026 53.9538 53.8535 54.4141C54.2044 54.8743 54.7057 55.1045 55.3574 55.1045ZM65.3721 48.6035V56H64.1006V53.1221H62.1934L60.4502 56H59.083L60.9424 52.9307C60.4684 52.7575 60.1038 52.4909 59.8486 52.1309C59.598 51.7663 59.4727 51.3424 59.4727 50.8594C59.4727 50.1849 59.7256 49.6426 60.2314 49.2324C60.7373 48.8177 61.4141 48.6081 62.2617 48.6035H65.3721ZM60.7441 50.873C60.7441 51.2331 60.8672 51.5247 61.1133 51.748C61.3594 51.9668 61.6852 52.0785 62.0908 52.083H64.1006V49.6289H62.2822C61.8128 49.6289 61.4391 49.7451 61.1611 49.9775C60.8831 50.2054 60.7441 50.5039 60.7441 50.873ZM74.1221 49.0273C75.0518 49.0273 75.7946 49.3395 76.3506 49.9639C76.9111 50.5837 77.1914 51.4017 77.1914 52.418V52.5342C77.1914 53.2314 77.057 53.8558 76.7881 54.4072C76.5192 54.9541 76.1318 55.3802 75.626 55.6855C75.1247 55.9863 74.5459 56.1367 73.8896 56.1367C72.8962 56.1367 72.0964 55.8063 71.4902 55.1455C70.8841 54.4801 70.5811 53.5892 70.5811 52.4727V51.8574C70.5811 50.3034 70.8682 49.0684 71.4424 48.1523C72.0212 47.2363 72.8734 46.6781 73.999 46.4775C74.637 46.3636 75.0677 46.2246 75.291 46.0605C75.5143 45.8965 75.626 45.6709 75.626 45.3838H76.665C76.665 45.9535 76.5352 46.3978 76.2754 46.7168C76.0202 47.0358 75.61 47.2614 75.0449 47.3936L74.1016 47.6055C73.3496 47.7832 72.7845 48.084 72.4062 48.5078C72.0326 48.9271 71.7887 49.4876 71.6748 50.1895C72.3447 49.4147 73.1605 49.0273 74.1221 49.0273ZM73.876 50.0664C73.2562 50.0664 72.764 50.276 72.3994 50.6953C72.0348 51.11 71.8525 51.6865 71.8525 52.4248V52.5342C71.8525 53.3271 72.0348 53.9561 72.3994 54.4209C72.7686 54.8812 73.2653 55.1113 73.8896 55.1113C74.5186 55.1113 75.0153 54.8789 75.3799 54.4141C75.7445 53.9492 75.9268 53.2702 75.9268 52.377C75.9268 51.6797 75.7422 51.1214 75.373 50.7021C75.0085 50.2783 74.5094 50.0664 73.876 50.0664ZM79.9873 56H78.7227V48.6035H79.9873V56ZM78.6201 46.6416C78.6201 46.4365 78.6816 46.2633 78.8047 46.1221C78.9323 45.9808 79.1191 45.9102 79.3652 45.9102C79.6113 45.9102 79.7982 45.9808 79.9258 46.1221C80.0534 46.2633 80.1172 46.4365 80.1172 46.6416C80.1172 46.8467 80.0534 47.0176 79.9258 47.1543C79.7982 47.291 79.6113 47.3594 79.3652 47.3594C79.1191 47.3594 78.9323 47.291 78.8047 47.1543C78.6816 47.0176 78.6201 46.8467 78.6201 46.6416ZM88.0811 48.6035V56H86.8096V49.6494H84.2939L84.1436 52.418C84.0615 53.6895 83.8473 54.5986 83.501 55.1455C83.1592 55.6924 82.6146 55.9772 81.8672 56H81.3613V54.8857L81.7236 54.8584C82.1338 54.8128 82.4277 54.5758 82.6055 54.1475C82.7832 53.7191 82.8971 52.9261 82.9473 51.7686L83.084 48.6035H88.0811ZM91.4922 51.1533H93.4131C94.2516 51.1624 94.9147 51.3812 95.4023 51.8096C95.89 52.238 96.1338 52.819 96.1338 53.5527C96.1338 54.291 95.8831 54.8835 95.3818 55.3301C94.8805 55.7767 94.2061 56 93.3584 56H90.2275V48.6035H91.4922V51.1533ZM91.4922 52.1855V54.9678H93.3721C93.846 54.9678 94.2129 54.847 94.4727 54.6055C94.7324 54.3594 94.8623 54.0244 94.8623 53.6006C94.8623 53.1904 94.7347 52.8555 94.4795 52.5957C94.2288 52.3314 93.8757 52.1947 93.4199 52.1855H91.4922ZM99.0938 48.6035V54.9678H101.801V48.6035H103.065V54.9678H105.766V48.6035H107.037V56H97.8223V48.6035H99.0938ZM112.103 56.1367C111.1 56.1367 110.284 55.8086 109.655 55.1523C109.026 54.4915 108.712 53.6097 108.712 52.5068V52.2744C108.712 51.5407 108.851 50.8867 109.129 50.3125C109.411 49.7337 109.803 49.2826 110.305 48.959C110.811 48.6309 111.357 48.4668 111.945 48.4668C112.907 48.4668 113.654 48.7835 114.188 49.417C114.721 50.0505 114.987 50.9574 114.987 52.1377V52.6641H109.977C109.995 53.3932 110.207 53.9834 110.612 54.4346C111.022 54.8812 111.542 55.1045 112.171 55.1045C112.618 55.1045 112.996 55.0133 113.306 54.8311C113.616 54.6488 113.887 54.4072 114.119 54.1064L114.892 54.708C114.272 55.6605 113.342 56.1367 112.103 56.1367ZM111.945 49.5059C111.435 49.5059 111.007 49.6927 110.66 50.0664C110.314 50.4355 110.1 50.9551 110.018 51.625H113.723V51.5293C113.686 50.8867 113.513 50.39 113.203 50.0391C112.893 49.6836 112.474 49.5059 111.945 49.5059Z" fill="#FFC50E"/>
<path fill-rule="evenodd" clip-rule="evenodd" d="M190 51C190 78.6142 167.614 101 140 101C119.112 101 101.216 88.1914 93.7365 70H92.6568C100.191 88.7566 118.549 102 140 102C168.167 102 191 79.1665 191 51C191 22.8335 168.167 0 140 0C118.932 0 100.848 12.7744 93.0709 31H94.1604C101.876 13.341 119.497 1 140 1C167.614 1 190 23.3858 190 51Z" fill="#FFC50E"/>
</svg>
