<svg width="40" height="40" viewBox="0 0 40 40" fill="none" xmlns="http://www.w3.org/2000/svg">
<g opacity="0.6">
<path d="M23.75 20.25C23.405 20.25 23.125 20.53 23.125 20.875C23.125 21.22 23.405 21.5 23.75 21.5C24.095 21.5 24.375 21.22 24.375 20.875C24.375 20.53 24.095 20.25 23.75 20.25Z" fill="white"/>
<path d="M10.3855 27.1116L4.13546 34.9866C3.98629 35.1743 3.95797 35.4309 4.06221 35.6467C4.16646 35.8628 4.38521 36 4.62496 36H35.375C35.6147 36 35.8335 35.8628 35.9377 35.6467C36.0422 35.4309 36.0136 35.1743 35.8645 34.9866L29.6145 27.1116C29.4961 26.9622 29.3156 26.875 29.125 26.875H23.6501L28.3242 19.5439C29.4206 17.9001 30 15.9832 30 14C30 8.48608 25.5141 4 20 4C14.4858 4 9.99996 8.48608 9.99996 14C9.99996 15.9832 10.5793 17.8999 11.6757 19.5439L16.3498 26.875H10.875C10.6843 26.875 10.5041 26.9622 10.3855 27.1116ZM8.05196 32.0625H11.831L9.6982 34.75H5.9189L8.05196 32.0625ZM17.1469 28.125L18.8603 30.8125H14.4189L16.552 28.125H17.1469ZM22.8532 28.125H23.4482L25.581 30.8125H21.1399L22.8532 28.125ZM26.5732 32.0625L28.706 34.75H11.2939L13.427 32.0625H26.5732ZM30.302 34.75L28.1689 32.0625H31.9482L34.081 34.75H30.302ZM30.956 30.8125H27.177L25.0439 28.125H28.8232L30.956 30.8125ZM12.7192 18.8555C11.758 17.4165 11.25 15.7375 11.25 14C11.25 9.17529 15.1753 5.25 20 5.25C24.8247 5.25 28.75 9.17529 28.75 14C28.75 15.7375 28.2419 17.4165 27.281 18.8555C27.2783 18.8591 27.2761 18.8628 27.2736 18.8665C26.8632 19.5103 20.3161 29.7793 20 30.2749C19.2048 29.0276 13.5361 20.1365 12.7263 18.8665C12.7241 18.8628 12.7216 18.8591 12.7192 18.8555ZM14.956 28.125L12.8232 30.8125H9.0439L11.177 28.125H14.956Z" fill="white"/>
<path d="M20 20.25C23.4312 20.25 26.25 17.4714 26.25 14C26.25 10.5537 23.4463 7.75 20 7.75C16.5537 7.75 13.75 10.5537 13.75 14C13.75 17.4724 16.5698 20.25 20 20.25ZM20 9C22.7571 9 25 11.2429 25 14C25 16.7827 22.739 19 20 19C17.2603 19 15 16.7827 15 14C15 11.2429 17.2429 9 20 9Z" fill="white"/>
<path d="M22.6323 22.3828C22.3369 22.2046 21.9526 22.2998 21.7744 22.5954L19.4643 26.428C19.2861 26.7236 19.3813 27.1077 19.677 27.2859C19.9739 27.4648 20.3574 27.3677 20.5349 27.0732L22.845 23.2407C23.0232 22.9451 22.928 22.561 22.6323 22.3828Z" fill="white"/>
</g>
</svg>
