<svg width="200" height="60" viewBox="0 0 200 60" fill="none" xmlns="http://www.w3.org/2000/svg">
<path d="M22.9492 27.783C22.9492 27.4461 22.9492 27.1091 22.9492 26.6758C24.4892 25.8788 26.0719 25.055 27.7295 24.1992C27.7295 21.4231 27.7295 18.6148 27.7295 15.7424C29.5635 15.7424 31.3227 15.7424 33.1834 15.7424C33.1834 17.6039 33.1834 19.4707 33.1834 21.4765C34.1459 20.9577 34.9747 20.5137 35.8035 20.0644C38.9903 18.3367 42.1771 16.6196 45.3586 14.8812C48.7486 13.0304 52.1226 11.1529 55.5126 9.30217C58.3144 7.77234 61.1269 6.26927 63.9341 4.75015C65.2228 4.05477 66.5061 3.338 67.8054 2.65868C68.1315 2.48751 68.5165 2.43937 68.9817 2.30029C68.9817 10.5431 68.9817 18.6416 68.9817 26.7988C69.2651 26.8149 69.4737 26.8416 69.6822 26.8416C72.1311 26.8416 74.5854 26.9005 77.029 26.8095C77.7615 26.7828 78.5048 26.3923 79.1945 26.0607C80.3762 25.4937 81.5205 24.8411 82.7984 24.1618C82.7984 21.407 82.7984 18.5774 82.7984 15.721C84.6378 15.721 86.3649 15.721 88.1882 15.721C88.1882 17.6039 88.1882 19.4707 88.1882 21.4765C89.0919 21.0005 89.8672 20.594 90.6372 20.1767C94.1608 18.2618 97.6845 16.3415 101.203 14.4158C104.609 12.5544 108.01 10.6715 111.421 8.8154C113.961 7.43001 116.511 6.07135 119.057 4.69666C120.308 4.01733 121.548 3.31661 122.816 2.65868C123.142 2.48751 123.532 2.43402 123.997 2.30029C123.997 10.5378 123.997 18.6362 123.997 26.7988C124.297 26.8149 124.527 26.8363 124.762 26.8416C126.671 26.847 128.58 26.8149 130.483 26.8577C131.355 26.8737 132.13 26.7293 132.9 26.296C134.231 25.5525 135.611 24.8892 137.007 24.1671C137.007 21.3535 137.007 18.5667 137.007 15.7317C138.792 15.7317 140.52 15.7317 142.321 15.7317C142.321 17.5825 142.321 19.4546 142.321 21.4765C142.91 21.177 143.38 20.947 143.84 20.7009C148.032 18.4276 152.219 16.1543 156.406 13.8702C159.779 12.0302 163.137 10.1741 166.511 8.33399C169.634 6.633 172.767 4.94271 175.895 3.24707C176.254 3.05451 176.601 2.8245 176.976 2.66938C177.334 2.5196 177.719 2.44472 178.184 2.30564C178.184 10.8962 178.184 19.3209 178.184 27.7991C177.799 27.7991 177.403 27.7991 176.82 27.7991C176.756 25.8895 176.799 23.9585 176.794 22.0275C176.783 20.0751 176.794 18.1227 176.794 16.1703C176.794 14.2179 176.794 12.2655 176.794 10.3131C176.794 8.36074 176.794 6.41369 176.794 4.29548C164.843 10.7999 152.983 17.2562 141.017 23.7713C141.017 21.4658 141.017 19.2888 141.017 17.0636C140.14 17.0636 139.332 17.0636 138.445 17.0636C138.445 17.7857 138.445 18.4918 138.445 19.2032C138.445 20.8507 138.429 22.4982 138.456 24.1457C138.466 24.702 138.327 25.055 137.787 25.3171C136.194 26.0821 134.632 26.9112 133.05 27.7028C132.884 27.7884 132.686 27.8419 132.499 27.8419C129.355 27.8472 126.211 27.8472 123.067 27.8472C122.96 27.8472 122.858 27.8258 122.703 27.8044C122.703 20.0109 122.703 12.2334 122.703 4.23664C110.683 10.7838 98.7967 17.2562 86.8033 23.7873C86.8033 21.4712 86.8033 19.2941 86.8033 17.0636C85.9264 17.0636 85.119 17.0636 84.2421 17.0636C84.2421 19.6739 84.2421 22.2842 84.2421 24.9588C83.1299 25.5311 82.0445 26.0928 80.9537 26.6491C80.8949 26.6811 80.8254 26.6865 80.7719 26.7239C79.3015 27.8365 77.6118 27.9221 75.8526 27.8686C73.4037 27.7991 70.9548 27.8526 68.5058 27.8526C68.2492 27.8526 67.9925 27.8526 67.6664 27.8526C67.6664 20.0163 67.6664 12.2281 67.6664 4.25804C55.657 10.7945 43.7759 17.2669 31.7772 23.798C31.7772 21.4605 31.7772 19.2781 31.7772 17.0583C30.9002 17.0583 30.0875 17.0583 29.2159 17.0583C29.2159 19.6793 29.2159 22.2949 29.2159 24.8518C28.339 25.6327 23.5641 27.8686 22.9492 27.783Z" fill="white"/>
<path d="M37.6753 39.3529C40.0387 44.8303 42.3325 50.1472 44.6959 55.6193C47.054 50.1526 49.3532 44.8303 51.7273 39.3208C54.5398 45.8413 57.2721 52.1906 60.0633 58.6682C59.4858 58.6682 59.0473 58.6682 58.6035 58.6682C58.149 58.6682 57.6945 58.6682 57.1598 58.6682C56.5129 57.0903 55.8659 55.5016 55.1975 53.8755C52.7913 53.8755 50.3745 53.8755 47.8935 53.8755C47.2304 55.4642 46.5567 57.0796 45.8669 58.7324C45.0221 58.7324 44.1345 58.7324 43.1132 58.7324C41.2952 54.2285 39.4559 49.6819 37.5737 45.0122C35.6274 49.6605 33.7292 54.1857 31.8203 58.7485C30.938 58.7485 30.013 58.7485 29.0185 58.7485C27.1898 54.2178 25.3504 49.6712 23.4683 45.0015C21.5166 49.6658 19.6237 54.1964 17.7256 58.7324C16.9128 58.7324 16.1268 58.7324 15.2231 58.7324C18.0089 52.2654 20.7627 45.8841 23.5805 39.3422C25.9439 44.8303 28.2378 50.1526 30.6279 55.6942C32.9966 50.1847 35.3066 44.841 37.6753 39.3529ZM51.6203 45.0175C50.6579 47.3069 49.7542 49.4572 48.8345 51.6396C50.6899 51.6396 52.4491 51.6396 54.2778 51.6396C53.3955 49.4358 52.54 47.3069 51.6203 45.0175Z" fill="#77B82A"/>
<path d="M181.638 58.6198C181.638 52.3508 181.638 46.1192 181.638 39.8501C186.258 44.4503 190.846 49.013 195.567 53.7094C195.567 49.12 195.567 44.7391 195.567 40.3155C196.375 40.3155 197.145 40.3155 197.973 40.3155C197.973 46.5524 197.973 52.8054 197.973 59.1868C193.38 54.6562 188.835 50.1791 184.296 45.6966C184.237 45.7233 184.183 45.7501 184.125 45.7768C184.125 50.0453 184.125 54.3139 184.125 58.6145C183.264 58.6198 182.488 58.6198 181.638 58.6198Z" fill="white"/>
<path d="M72.1687 51.3024C73.7194 53.7255 75.254 56.1165 76.8367 58.5931C75.8742 58.5931 74.9866 58.5931 74.0028 58.5931C72.5698 56.4161 71.0886 54.1695 69.5968 51.9122C68.4472 51.9122 67.3136 51.9122 66.1106 51.9122C66.1106 54.1481 66.1106 56.3465 66.1106 58.6038C65.2657 58.6038 64.4851 58.6038 63.6616 58.6038C63.6616 52.5113 63.6616 46.4348 63.6616 40.2781C65.1267 40.2781 66.5704 40.2299 68.0141 40.2941C69.0621 40.3423 70.1262 40.4385 71.1475 40.6793C74.3343 41.4281 76.0614 44.6001 75.0401 47.7025C74.3931 49.6817 74.1257 50.024 72.1687 51.3024ZM66.164 42.6477C66.164 44.9692 66.164 47.2265 66.164 49.5051C67.3457 49.5051 68.4739 49.5533 69.5968 49.4944C71.3988 49.4035 72.7302 47.9218 72.7302 46.0871C72.7302 44.2791 71.3506 42.7386 69.5968 42.6584C68.4739 42.6049 67.3457 42.6477 66.164 42.6477Z" fill="white"/>
<path d="M138.616 51.2756C140.183 53.7255 141.723 56.1325 143.311 58.6091C142.316 58.6091 141.418 58.6091 140.477 58.6091C139.012 56.384 137.525 54.1374 136.055 51.9015C134.884 51.9015 133.761 51.9015 132.547 51.9015C132.547 54.1427 132.547 56.3626 132.547 58.6145C131.702 58.6145 130.954 58.6145 130.146 58.6145C130.146 52.538 130.146 46.4562 130.146 40.3529C130.152 40.3476 130.184 40.2941 130.216 40.2941C132.36 40.3262 134.52 40.1818 136.638 40.4439C139.22 40.7648 141.076 42.1021 141.605 44.5947C142.102 46.9322 141.562 49.0665 139.621 50.6658C139.359 50.8852 139.033 51.0242 138.616 51.2756ZM132.601 49.5051C133.809 49.5051 134.937 49.5533 136.06 49.4944C137.836 49.4035 139.113 48.0288 139.194 46.2155C139.274 44.5038 138.055 42.883 136.376 42.7065C135.141 42.5728 133.879 42.6798 132.595 42.6798C132.601 44.9531 132.601 47.1943 132.601 49.5051Z" fill="white"/>
<path d="M124.345 41.4764C124.104 42.1504 123.858 42.835 123.645 43.4288C122.367 43.1292 121.153 42.7174 119.912 42.589C117.287 42.3162 114.881 42.942 113.164 45.0923C111.833 46.7666 111.523 48.7618 111.833 50.8586C112.362 54.4478 115.544 56.5125 118.736 56.4162C119.859 56.3841 120.992 56.4536 122.057 55.9936C122.254 55.908 122.442 55.8118 122.639 55.7155C122.639 54.4906 122.639 53.3031 122.639 52.03C121.404 52.03 120.185 52.03 118.934 52.03C118.934 51.217 118.934 50.4895 118.934 49.7032C120.992 49.7032 123.035 49.7032 125.12 49.7032C125.12 52.1637 125.12 54.6029 125.12 57.1597C124.505 57.4539 123.853 57.8444 123.153 58.0904C120.372 59.064 117.538 59.2137 114.779 58.1118C112.068 57.026 110.191 55.095 109.491 52.1637C108.684 48.7778 109.336 45.7235 111.646 43.0918C113.186 41.3373 115.223 40.5136 117.485 40.1659C119.832 39.8021 122.024 40.3317 124.137 41.3159C124.206 41.3373 124.249 41.3908 124.345 41.4764Z" fill="white"/>
<path d="M167.004 56.3519C170.372 56.3519 173.682 56.3519 177.04 56.3519C177.04 57.1328 177.04 57.855 177.04 58.6145C172.848 58.6145 168.677 58.6145 164.475 58.6145C164.475 52.522 164.475 46.4615 164.475 40.3369C168.533 40.3369 172.591 40.3369 176.693 40.3369C176.693 41.0804 176.693 41.8239 176.693 42.6263C173.458 42.6263 170.255 42.6263 167.009 42.6263C167.009 44.5092 167.009 46.3385 167.009 48.2428C169.891 48.2428 172.741 48.2428 175.623 48.2428C175.623 49.0451 175.623 49.7726 175.623 50.5642C172.752 50.5642 169.902 50.5642 167.004 50.5642C167.004 52.5059 167.004 54.3781 167.004 56.3519Z" fill="white"/>
<path d="M158.481 48.216C158.481 49.0397 158.481 49.7672 158.481 50.5588C155.631 50.5588 152.802 50.5588 149.931 50.5588C149.931 52.5005 149.931 54.3727 149.931 56.3358C153.224 56.3358 156.529 56.3358 159.876 56.3358C159.876 57.1381 159.876 57.8603 159.876 58.6198C155.727 58.6198 151.599 58.6198 147.428 58.6198C147.428 52.5273 147.428 46.4454 147.428 40.3208C151.465 40.3208 155.502 40.3208 159.593 40.3208C159.593 41.059 159.593 41.7864 159.593 42.5995C156.39 42.5995 153.182 42.5995 149.931 42.5995C149.931 44.4984 149.931 46.3117 149.931 48.216C152.759 48.216 155.604 48.216 158.481 48.216Z" fill="white"/>
<path d="M0.930176 56.8815C1.26704 56.2931 1.6039 55.6993 1.85521 55.2607C3.17592 55.7421 4.40039 56.2877 5.67298 56.6194C7.23966 57.0259 8.73148 56.7263 9.9506 55.571C10.9184 54.6563 10.9077 52.9018 9.97734 51.9229C9.04695 50.9494 7.7904 50.5803 6.61406 50.0454C5.44306 49.5105 4.15443 49.0612 3.21335 48.2374C0.652131 46.0016 1.62529 41.8721 4.87628 40.6846C7.15946 39.8502 9.37847 40.1604 11.5814 40.9895C11.806 41.0751 12.0199 41.1714 12.2391 41.2677C12.453 41.3639 12.6669 41.4709 12.9717 41.6154C12.6722 42.2251 12.3835 42.8135 12.1108 43.3752C11.0414 43.0542 10.0362 42.7547 9.03626 42.4498C7.95616 42.1235 6.89745 42.2626 5.86548 42.6424C4.99926 42.958 4.48594 43.5998 4.36296 44.5092C4.23998 45.3918 4.51268 46.1888 5.28265 46.6488C6.20234 47.1997 7.18084 47.6544 8.15935 48.0984C9.4961 48.7028 10.9131 49.1361 11.9718 50.2326C13.8058 52.1476 13.6187 55.5228 11.6296 57.2826C10.3356 58.4273 8.82238 58.8178 7.15411 58.8499C5.05808 58.8874 3.15454 58.2562 1.35259 57.2345C1.25634 57.181 1.17614 57.1115 1.09059 57.0419C1.02642 57.0098 0.99434 56.951 0.930176 56.8815Z" fill="white"/>
<path d="M78.7886 40.3101C82.9218 40.3101 87.0283 40.3101 91.183 40.3101C91.183 41.0536 91.183 41.7917 91.183 42.6048C89.5254 42.6048 87.8892 42.6048 86.1835 42.6048C86.1835 47.9645 86.1835 53.26 86.1835 58.6037C85.328 58.6037 84.5366 58.6037 83.6811 58.6037C83.6811 53.3082 83.6811 48.0127 83.6811 42.6476C82.0235 42.6476 80.4301 42.6476 78.7886 42.6476C78.7886 41.8345 78.7886 41.0964 78.7886 40.3101Z" fill="white"/>
<path d="M101.658 52.9663L102.54 50.6983H101.754L101.144 52.287L99.4388 50.0243C99.4281 50.0029 99.4013 49.9494 99.3532 49.8746C99.3104 49.7997 99.2623 49.7034 99.2195 49.5911C99.1768 49.4787 99.1554 49.3718 99.1554 49.2648C99.1554 49.0455 99.2249 48.8582 99.3692 48.7031C99.5136 48.548 99.7168 48.4678 99.9735 48.4678C100.145 48.4678 100.316 48.5159 100.492 48.6122C100.663 48.7085 100.84 48.8422 101.016 49.008L101.449 48.4357C101.273 48.2538 101.048 48.0933 100.776 47.9596C100.503 47.8259 100.193 47.7563 99.8451 47.7563C99.5083 47.7563 99.2249 47.8259 98.995 47.9596C98.7597 48.0933 98.5832 48.2752 98.4603 48.4945C98.3373 48.7138 98.2731 48.9545 98.2731 49.2059C98.2731 49.3664 98.2998 49.5215 98.348 49.6713C98.3961 49.8211 98.4603 49.9601 98.5298 50.0832C98.5993 50.2062 98.6634 50.3078 98.7169 50.3934L99.0057 50.7785C98.9094 50.7999 98.8132 50.8267 98.7169 50.8641C98.4603 50.9658 98.2303 51.0995 98.0164 51.276C97.8026 51.4525 97.6422 51.6558 97.5192 51.8911C97.3962 52.1265 97.332 52.3833 97.332 52.6614C97.332 53.0198 97.4229 53.3407 97.6101 53.6242C97.7972 53.9077 98.0485 54.1324 98.364 54.2982C98.6795 54.464 99.0431 54.5443 99.4441 54.5443C99.9253 54.5443 100.337 54.4426 100.669 54.2447C100.904 54.1056 101.091 53.9345 101.241 53.7473L101.775 54.4587C101.941 54.4587 102.08 54.4587 102.192 54.4587C102.305 54.4587 102.417 54.4587 102.529 54.4587C102.636 54.4587 102.716 54.4587 102.765 54.4587L101.658 52.9663ZM100.594 53.3889C100.471 53.5012 100.321 53.5921 100.15 53.6617C99.9788 53.7312 99.781 53.7633 99.5564 53.7633C99.3158 53.7633 99.0912 53.7152 98.888 53.6189C98.6848 53.5226 98.5244 53.3889 98.4014 53.2124C98.2785 53.0412 98.2196 52.8379 98.2196 52.6079C98.2196 52.4367 98.2571 52.2763 98.3319 52.1265C98.4068 51.9767 98.503 51.843 98.626 51.7307C98.749 51.6183 98.8934 51.5328 99.0484 51.4632C99.1821 51.4097 99.3211 51.383 99.4601 51.3723L100.792 53.1321C100.743 53.2231 100.679 53.3086 100.594 53.3889Z" fill="#77B82A"/>
</svg>
