<svg width="40" height="40" viewBox="0 0 40 40" fill="none" xmlns="http://www.w3.org/2000/svg">
<g opacity="0.6">
<path d="M35.9323 14.9019L32.9249 8.97539V6.625C32.9249 6.27988 32.6452 6 32.2999 6H7.69989C7.35476 6 7.07489 6.27988 7.07489 6.625V8.9757L4.06763 14.9019C4.02319 14.9895 4 15.0865 4 15.1847V16.7223C4 18.5493 5.33151 20.0703 7.07489 20.3684V33.5H6.43532C6.09013 33.5 5.81032 33.7799 5.81032 34.125C5.81032 34.4701 6.09013 34.75 6.43532 34.75H7.69508C7.69664 34.75 7.69826 34.7502 7.69989 34.7502H24.8H29.8H32.3H33.5646C33.9097 34.7502 34.1896 34.4704 34.1896 34.1252C34.1896 33.7801 33.9097 33.5002 33.5646 33.5002H32.9251V20.3684C34.6685 20.0703 36 18.5494 36 16.7223V15.1847C36 15.0865 35.9768 14.9895 35.9323 14.9019ZM8.32489 7.25H31.6749V8.5002H27.3801H22.46H17.5401H12.6199H8.32489V7.25ZM23.6968 15.1216L23.1517 9.7502H26.9171L28.6 15.2777V16.7223C28.6 18.0732 27.501 19.1722 26.15 19.1722C24.7991 19.1722 23.7 18.0732 23.7 16.7223V15.1847C23.7 15.1637 23.6989 15.1426 23.6968 15.1216ZM22.4499 15.2163V16.7223H22.4499C22.4499 18.0732 21.3509 19.1722 20.0001 19.1722C18.6491 19.1722 17.55 18.0732 17.55 16.7223V15.2163L18.1049 9.7502H21.8953L22.4499 15.2163ZM16.8485 9.75026L16.3032 15.1217C16.301 15.1426 16.3 15.1637 16.3 15.1847V16.7223C16.3 18.0732 15.201 19.1722 13.85 19.1722C12.4991 19.1722 11.4001 18.0732 11.4001 16.7223V15.2778L13.0831 9.75026H16.8485ZM5.25 16.7223V15.3342L8.08364 9.7502H11.7763L10.1771 15.0027C10.1592 15.0617 10.15 15.123 10.15 15.1847V16.7223C10.15 18.0732 9.05089 19.1722 7.69989 19.1722C6.34901 19.1722 5.25 18.0732 5.25 16.7223ZM29.175 33.5002H25.425V31.6251V29.1251H26.05C26.3952 29.1251 26.675 28.8453 26.675 28.5001C26.675 28.155 26.3952 27.8751 26.05 27.8751H25.425V23.5002H29.175V33.5002ZM31.6749 33.5002H30.4249V22.8752C30.4249 22.5301 30.1451 22.2502 29.7999 22.2502H24.7998H10.2C9.85471 22.2502 9.57496 22.5301 9.57496 22.8752V31.6251C9.57496 31.9703 9.85471 32.2501 10.2 32.2501H24.175V33.5002H8.32489V20.3684C9.34327 20.1943 10.2211 19.6035 10.775 18.7774C11.4395 19.7684 12.5697 20.4222 13.85 20.4222C15.1302 20.4222 16.2604 19.7684 16.9249 18.7774C17.5895 19.7684 18.7197 20.4222 20 20.4222C21.2801 20.4222 22.4104 19.7684 23.0748 18.7774C23.7394 19.7684 24.8696 20.4222 26.1499 20.4222C27.4302 20.4222 28.5604 19.7684 29.2249 18.7774C29.7788 19.6035 30.6566 20.1943 31.6749 20.3684V33.5002ZM16.9207 23.5002H19.0982L17.9097 24.6884C17.6657 24.9324 17.6657 25.3282 17.9097 25.5723C18.0317 25.6944 18.1917 25.7555 18.3517 25.7555C18.5116 25.7555 18.6715 25.6944 18.7936 25.5724L20.866 23.5002H24.1749V31.0001H10.825V29.5959L16.9207 23.5002ZM10.825 27.8281V23.5002H15.1529L10.825 27.8281ZM34.75 16.7223C34.75 18.0732 33.6509 19.1722 32.3 19.1722C30.9491 19.1722 29.85 18.0732 29.85 16.7223V15.1847C29.85 15.123 29.8409 15.0617 29.8229 15.0027L28.2237 9.7502H31.9164L34.75 15.3342V16.7223Z" fill="white"/>
<path d="M17.0713 27.0358C17.2306 27.0358 17.39 26.9752 17.5119 26.854L17.5224 26.8436C17.7672 26.6003 17.7683 26.2046 17.525 25.9598C17.2816 25.715 16.8858 25.7138 16.6411 25.9572L16.6306 25.9676C16.3858 26.2109 16.3848 26.6067 16.628 26.8515C16.7502 26.9743 16.9107 27.0358 17.0713 27.0358Z" fill="white"/>
<path d="M4.63975 33.5H4.625C4.27981 33.5 4 33.7799 4 34.125C4 34.4701 4.27981 34.75 4.625 34.75H4.63975C4.98488 34.75 5.26475 34.4701 5.26475 34.125C5.26475 33.7799 4.98494 33.5 4.63975 33.5Z" fill="white"/>
<path d="M35.3751 33.5H35.3604C35.0152 33.5 34.7354 33.7799 34.7354 34.125C34.7354 34.4701 35.0152 34.75 35.3604 34.75H35.3751C35.7203 34.75 36.0001 34.4701 36.0001 34.125C36.0001 33.7799 35.7203 33.5 35.3751 33.5Z" fill="white"/>
</g>
</svg>
