<svg width="220" height="44" viewBox="0 0 220 44" fill="none" xmlns="http://www.w3.org/2000/svg">
<rect width="220" height="44" rx="2" fill="#FF9900"/>
<path d="M36.3018 19.7197C36.3018 19.1911 36.1081 18.7718 35.7207 18.4619C35.3379 18.1475 34.7979 17.9902 34.1006 17.9902C33.5173 17.9902 33.0273 18.152 32.6309 18.4756C32.2389 18.7946 32.043 19.1911 32.043 19.665H30.7305C30.7305 19.1364 30.874 18.6624 31.1611 18.2432C31.4528 17.8239 31.8584 17.498 32.3779 17.2656C32.8975 17.0286 33.4717 16.9102 34.1006 16.9102C35.2126 16.9102 36.0762 17.1608 36.6914 17.6621C37.3066 18.1589 37.6143 18.8516 37.6143 19.7402C37.6143 20.2005 37.473 20.6198 37.1904 20.998C36.9079 21.3763 36.5137 21.6748 36.0078 21.8936C37.179 22.2855 37.7646 23.0625 37.7646 24.2246C37.7646 25.1178 37.432 25.8265 36.7666 26.3506C36.1012 26.8747 35.2126 27.1367 34.1006 27.1367C33.4398 27.1367 32.8382 27.0205 32.2959 26.7881C31.7581 26.5511 31.3389 26.2161 31.0381 25.7832C30.7373 25.3503 30.5869 24.8353 30.5869 24.2383H31.8994C31.8994 24.7624 32.1068 25.1999 32.5215 25.5508C32.9362 25.8971 33.4626 26.0703 34.1006 26.0703C34.8161 26.0703 35.3857 25.904 35.8096 25.5713C36.238 25.2386 36.4521 24.7988 36.4521 24.252C36.4521 23.0853 35.7298 22.4906 34.2852 22.4678H33.0547V21.3877H34.2783C34.9437 21.374 35.4473 21.2236 35.7891 20.9365C36.1309 20.6494 36.3018 20.2438 36.3018 19.7197ZM43.876 27C43.8031 26.8542 43.7438 26.5944 43.6982 26.2207C43.1104 26.8314 42.4085 27.1367 41.5928 27.1367C40.8636 27.1367 40.2643 26.9316 39.7949 26.5215C39.3301 26.1068 39.0977 25.5827 39.0977 24.9492C39.0977 24.179 39.3893 23.582 39.9727 23.1582C40.5605 22.7298 41.3854 22.5156 42.4473 22.5156H43.6777V21.9346C43.6777 21.4925 43.5456 21.1416 43.2812 20.8818C43.0169 20.6175 42.6273 20.4854 42.1123 20.4854C41.6611 20.4854 41.2829 20.5993 40.9775 20.8271C40.6722 21.055 40.5195 21.3307 40.5195 21.6543H39.248C39.248 21.2852 39.3779 20.9297 39.6377 20.5879C39.902 20.2415 40.2575 19.9681 40.7041 19.7676C41.1553 19.5671 41.6497 19.4668 42.1875 19.4668C43.0397 19.4668 43.7074 19.681 44.1904 20.1094C44.6735 20.5332 44.9242 21.1188 44.9424 21.8662V25.2705C44.9424 25.9495 45.029 26.4896 45.2021 26.8906V27H43.876ZM41.7773 26.0361C42.1738 26.0361 42.5498 25.9336 42.9053 25.7285C43.2607 25.5234 43.5182 25.2568 43.6777 24.9287V23.4111H42.6865C41.137 23.4111 40.3623 23.8646 40.3623 24.7715C40.3623 25.168 40.4945 25.4779 40.7588 25.7012C41.0231 25.9245 41.3626 26.0361 41.7773 26.0361ZM52.9746 27H51.71V20.6494H48.3057V27H47.0342V19.6035H52.9746V27ZM59.79 19.6035H61.0547V27H59.79V21.6064L56.3789 27H55.1143V19.6035H56.3789V25.0039L59.79 19.6035ZM66.0518 26.1045C66.5029 26.1045 66.8971 25.9678 67.2344 25.6943C67.5716 25.4209 67.7585 25.0791 67.7949 24.6689H68.9912C68.9684 25.0928 68.8226 25.4961 68.5537 25.8789C68.2848 26.2617 67.9248 26.5671 67.4736 26.7949C67.027 27.0228 66.5531 27.1367 66.0518 27.1367C65.0446 27.1367 64.2425 26.8018 63.6455 26.1318C63.0531 25.4574 62.7568 24.5368 62.7568 23.3701V23.1582C62.7568 22.4382 62.889 21.7979 63.1533 21.2373C63.4176 20.6768 63.7959 20.2415 64.2881 19.9316C64.7848 19.6217 65.3704 19.4668 66.0449 19.4668C66.8743 19.4668 67.5625 19.7152 68.1094 20.2119C68.6608 20.7087 68.9548 21.3535 68.9912 22.1465H67.7949C67.7585 21.668 67.5762 21.276 67.248 20.9707C66.9245 20.6608 66.5234 20.5059 66.0449 20.5059C65.4023 20.5059 64.9033 20.7383 64.5479 21.2031C64.1969 21.6634 64.0215 22.3311 64.0215 23.2061V23.4453C64.0215 24.2975 64.1969 24.9538 64.5479 25.4141C64.8988 25.8743 65.4001 26.1045 66.0518 26.1045ZM74.9795 27C74.9066 26.8542 74.8473 26.5944 74.8018 26.2207C74.2139 26.8314 73.512 27.1367 72.6963 27.1367C71.9671 27.1367 71.3678 26.9316 70.8984 26.5215C70.4336 26.1068 70.2012 25.5827 70.2012 24.9492C70.2012 24.179 70.4928 23.582 71.0762 23.1582C71.6641 22.7298 72.4889 22.5156 73.5508 22.5156H74.7812V21.9346C74.7812 21.4925 74.6491 21.1416 74.3848 20.8818C74.1204 20.6175 73.7308 20.4854 73.2158 20.4854C72.7646 20.4854 72.3864 20.5993 72.0811 20.8271C71.7757 21.055 71.623 21.3307 71.623 21.6543H70.3516C70.3516 21.2852 70.4814 20.9297 70.7412 20.5879C71.0055 20.2415 71.361 19.9681 71.8076 19.7676C72.2588 19.5671 72.7533 19.4668 73.291 19.4668C74.1432 19.4668 74.8109 19.681 75.2939 20.1094C75.777 20.5332 76.0277 21.1188 76.0459 21.8662V25.2705C76.0459 25.9495 76.1325 26.4896 76.3057 26.8906V27H74.9795ZM72.8809 26.0361C73.2773 26.0361 73.6533 25.9336 74.0088 25.7285C74.3643 25.5234 74.6217 25.2568 74.7812 24.9287V23.4111H73.79C72.2406 23.4111 71.4658 23.8646 71.4658 24.7715C71.4658 25.168 71.598 25.4779 71.8623 25.7012C72.1266 25.9245 72.4661 26.0361 72.8809 26.0361ZM83.415 20.6289H80.9336V27H79.6689V20.6289H77.2354V19.6035H83.415V20.6289ZM89.4307 19.6035H90.6953V27H89.4307V21.6064L86.0195 27H84.7549V19.6035H86.0195V25.0039L89.4307 19.6035ZM95.6924 26.1045C96.1436 26.1045 96.5378 25.9678 96.875 25.6943C97.2122 25.4209 97.3991 25.0791 97.4355 24.6689H98.6318C98.609 25.0928 98.4632 25.4961 98.1943 25.8789C97.9255 26.2617 97.5654 26.5671 97.1143 26.7949C96.6676 27.0228 96.1937 27.1367 95.6924 27.1367C94.6852 27.1367 93.8831 26.8018 93.2861 26.1318C92.6937 25.4574 92.3975 24.5368 92.3975 23.3701V23.1582C92.3975 22.4382 92.5296 21.7979 92.7939 21.2373C93.0583 20.6768 93.4365 20.2415 93.9287 19.9316C94.4255 19.6217 95.0111 19.4668 95.6855 19.4668C96.515 19.4668 97.2031 19.7152 97.75 20.2119C98.3014 20.7087 98.5954 21.3535 98.6318 22.1465H97.4355C97.3991 21.668 97.2168 21.276 96.8887 20.9707C96.5651 20.6608 96.1641 20.5059 95.6855 20.5059C95.043 20.5059 94.5439 20.7383 94.1885 21.2031C93.8376 21.6634 93.6621 22.3311 93.6621 23.2061V23.4453C93.6621 24.2975 93.8376 24.9538 94.1885 25.4141C94.5394 25.8743 95.0407 26.1045 95.6924 26.1045ZM101.435 22.1533H103.355C104.194 22.1624 104.857 22.3812 105.345 22.8096C105.832 23.238 106.076 23.819 106.076 24.5527C106.076 25.291 105.826 25.8835 105.324 26.3301C104.823 26.7767 104.148 27 103.301 27H100.17V19.6035H101.435V22.1533ZM101.435 23.1855V25.9678H103.314C103.788 25.9678 104.155 25.847 104.415 25.6055C104.675 25.3594 104.805 25.0244 104.805 24.6006C104.805 24.1904 104.677 23.8555 104.422 23.5957C104.171 23.3314 103.818 23.1947 103.362 23.1855H101.435ZM117.171 27H115.906V23.8418H112.509V27H111.237V19.6035H112.509V22.8096H115.906V19.6035H117.171V27ZM123.774 27C123.701 26.8542 123.642 26.5944 123.597 26.2207C123.009 26.8314 122.307 27.1367 121.491 27.1367C120.762 27.1367 120.163 26.9316 119.693 26.5215C119.229 26.1068 118.996 25.5827 118.996 24.9492C118.996 24.179 119.288 23.582 119.871 23.1582C120.459 22.7298 121.284 22.5156 122.346 22.5156H123.576V21.9346C123.576 21.4925 123.444 21.1416 123.18 20.8818C122.915 20.6175 122.526 20.4854 122.011 20.4854C121.56 20.4854 121.181 20.5993 120.876 20.8271C120.571 21.055 120.418 21.3307 120.418 21.6543H119.146C119.146 21.2852 119.276 20.9297 119.536 20.5879C119.8 20.2415 120.156 19.9681 120.603 19.7676C121.054 19.5671 121.548 19.4668 122.086 19.4668C122.938 19.4668 123.606 19.681 124.089 20.1094C124.572 20.5332 124.823 21.1188 124.841 21.8662V25.2705C124.841 25.9495 124.927 26.4896 125.101 26.8906V27H123.774ZM121.676 26.0361C122.072 26.0361 122.448 25.9336 122.804 25.7285C123.159 25.5234 123.417 25.2568 123.576 24.9287V23.4111H122.585C121.035 23.4111 120.261 23.8646 120.261 24.7715C120.261 25.168 120.393 25.4779 120.657 25.7012C120.922 25.9245 121.261 26.0361 121.676 26.0361ZM136.346 27H135.081V20.6494H131.677V27H130.405V19.6035H136.346V27ZM141.445 27.1367C140.443 27.1367 139.627 26.8086 138.998 26.1523C138.369 25.4915 138.055 24.6097 138.055 23.5068V23.2744C138.055 22.5407 138.194 21.8867 138.472 21.3125C138.754 20.7337 139.146 20.2826 139.647 19.959C140.153 19.6309 140.7 19.4668 141.288 19.4668C142.25 19.4668 142.997 19.7835 143.53 20.417C144.063 21.0505 144.33 21.9574 144.33 23.1377V23.6641H139.319C139.338 24.3932 139.549 24.9834 139.955 25.4346C140.365 25.8812 140.885 26.1045 141.514 26.1045C141.96 26.1045 142.339 26.0133 142.648 25.8311C142.958 25.6488 143.229 25.4072 143.462 25.1064L144.234 25.708C143.615 26.6605 142.685 27.1367 141.445 27.1367ZM141.288 20.5059C140.778 20.5059 140.349 20.6927 140.003 21.0664C139.657 21.4355 139.442 21.9551 139.36 22.625H143.065V22.5293C143.029 21.8867 142.856 21.39 142.546 21.0391C142.236 20.6836 141.817 20.5059 141.288 20.5059ZM152.048 23.3838C152.048 24.5094 151.79 25.4163 151.275 26.1045C150.76 26.7926 150.063 27.1367 149.184 27.1367C148.286 27.1367 147.579 26.8519 147.064 26.2822V29.8438H145.8V19.6035H146.955L147.017 20.4238C147.532 19.7858 148.247 19.4668 149.163 19.4668C150.052 19.4668 150.754 19.8018 151.269 20.4717C151.788 21.1416 152.048 22.0736 152.048 23.2676V23.3838ZM150.783 23.2402C150.783 22.4062 150.605 21.7477 150.25 21.2646C149.895 20.7816 149.407 20.54 148.787 20.54C148.021 20.54 147.447 20.8796 147.064 21.5586V25.0928C147.443 25.7673 148.021 26.1045 148.801 26.1045C149.407 26.1045 149.888 25.8652 150.243 25.3867C150.603 24.9036 150.783 24.1882 150.783 23.2402ZM156.73 27.1367C155.728 27.1367 154.912 26.8086 154.283 26.1523C153.654 25.4915 153.34 24.6097 153.34 23.5068V23.2744C153.34 22.5407 153.479 21.8867 153.757 21.3125C154.039 20.7337 154.431 20.2826 154.933 19.959C155.438 19.6309 155.985 19.4668 156.573 19.4668C157.535 19.4668 158.282 19.7835 158.815 20.417C159.349 21.0505 159.615 21.9574 159.615 23.1377V23.6641H154.604C154.623 24.3932 154.835 24.9834 155.24 25.4346C155.65 25.8812 156.17 26.1045 156.799 26.1045C157.245 26.1045 157.624 26.0133 157.934 25.8311C158.243 25.6488 158.515 25.4072 158.747 25.1064L159.52 25.708C158.9 26.6605 157.97 27.1367 156.73 27.1367ZM156.573 20.5059C156.063 20.5059 155.634 20.6927 155.288 21.0664C154.942 21.4355 154.728 21.9551 154.646 22.625H158.351V22.5293C158.314 21.8867 158.141 21.39 157.831 21.0391C157.521 20.6836 157.102 20.5059 156.573 20.5059ZM165.863 20.6494H162.452V27H161.181V19.6035H165.863V20.6494ZM172.754 19.6035V27H171.482V20.6494H168.967L168.816 23.418C168.734 24.6895 168.52 25.5986 168.174 26.1455C167.832 26.6924 167.287 26.9772 166.54 27H166.034V25.8857L166.396 25.8584C166.807 25.8128 167.101 25.5758 167.278 25.1475C167.456 24.7191 167.57 23.9261 167.62 22.7686L167.757 19.6035H172.754ZM180.438 19.6035V27H179.166V24.1221H177.259L175.516 27H174.148L176.008 23.9307C175.534 23.7575 175.169 23.4909 174.914 23.1309C174.663 22.7663 174.538 22.3424 174.538 21.8594C174.538 21.1849 174.791 20.6426 175.297 20.2324C175.803 19.8177 176.479 19.6081 177.327 19.6035H180.438ZM175.81 21.873C175.81 22.2331 175.933 22.5247 176.179 22.748C176.425 22.9668 176.751 23.0785 177.156 23.083H179.166V20.6289H177.348C176.878 20.6289 176.505 20.7451 176.227 20.9775C175.949 21.2054 175.81 21.5039 175.81 21.873ZM182.406 25.9678L182.844 25.4277C183.336 24.7897 183.616 23.8327 183.685 22.5566L183.801 19.6035H188.565V25.9678H189.516V29.1738H188.251V27H183.09V29.1738H181.825L181.832 25.9678H182.406ZM183.903 25.9678H187.301V20.7725H185.024L184.949 22.5361C184.872 24.0081 184.523 25.152 183.903 25.9678Z" fill="#333333"/>
</svg>
