<svg width="40" height="40" viewBox="0 0 40 40" fill="none" xmlns="http://www.w3.org/2000/svg">
<g opacity="0.6">
<path d="M9.5 30C10.2606 30 11.0012 29.8347 11.6875 29.5171V34.75H6.6875C6.34238 34.75 6.0625 35.0298 6.0625 35.375C6.0625 35.7202 6.34238 36 6.6875 36H33.3125C33.6576 36 33.9375 35.7202 33.9375 35.375C33.9375 35.0298 33.6576 34.75 33.3125 34.75H28.3125V29.5171C28.9988 29.8347 29.7394 30 30.5 30C33.4813 30 36 27.5672 36 24.6875C36 22.3908 34.3314 20.2866 32.0444 19.6039C31.9119 18.1587 31.0614 16.8669 29.8006 16.1691C30.0572 15.4784 30.1875 14.7514 30.1875 14C30.1875 13.4845 30.1243 12.9722 29.9997 12.4773C29.9153 12.1426 29.5755 11.9395 29.241 12.0238C28.9063 12.1081 28.7033 12.4478 28.7875 12.7825C28.887 13.1778 28.9375 13.5873 28.9375 14C28.9375 14.5988 28.8343 15.1777 28.6311 15.7275C28.3226 15.6596 28.0071 15.625 27.6875 15.625C25.4085 15.625 23.5309 17.3764 23.3302 19.604C22.2556 19.9249 21.3176 20.5597 20.625 21.3809V16.2696L24.2062 14.5642C24.5179 14.4158 24.6502 14.0429 24.5018 13.7312C24.3534 13.4196 23.9803 13.2872 23.6688 13.4357L20.625 14.8851V10.25C20.625 9.90481 20.3451 9.625 20 9.625C19.6549 9.625 19.375 9.90481 19.375 10.25V13.0101L16.3313 11.5607C16.0195 11.4124 15.6466 11.5446 15.4983 11.8562C15.3498 12.1679 15.4821 12.5409 15.7938 12.6892L19.3751 14.3946V21.3809C18.6825 20.5597 17.7445 19.9249 16.6698 19.604C16.4691 17.3764 14.5915 15.625 12.3125 15.625C11.993 15.625 11.6774 15.6596 11.3689 15.7275C11.1657 15.1777 11.0625 14.5988 11.0625 14C11.0625 11.5249 12.8468 9.45531 15.3052 9.07906C15.5683 9.03881 15.7771 8.83631 15.8253 8.5745C16.1687 6.71031 18.0025 5.25 20 5.25C21.9975 5.25 23.8313 6.71031 24.1747 8.5745C24.2229 8.83625 24.4317 9.03881 24.6948 9.07906C24.9505 9.11819 25.2049 9.17756 25.4511 9.25544C25.7802 9.35969 26.1314 9.17731 26.2356 8.84819C26.3397 8.51912 26.1574 8.16787 25.8283 8.06375C25.6569 8.0095 25.4823 7.96244 25.306 7.923C24.6767 5.65869 22.4718 4 20 4C17.5282 4 15.3233 5.65875 14.694 7.923C11.8675 8.55694 9.8125 11.0564 9.8125 14C9.8125 14.7514 9.94281 15.4784 10.1994 16.169C8.93863 16.8669 8.08806 18.1586 7.95563 19.6039C5.66856 20.2866 4 22.3908 4 24.6875C4 27.5672 6.51869 30 9.5 30ZM12.9375 29.5171C13.6238 29.8347 14.3644 30 15.125 30C16.8154 30 18.3568 29.2177 19.375 28.0154V34.75H12.9375V29.5171ZM20.625 34.75V28.0154C21.6432 29.2177 23.1846 30 24.875 30C25.6356 30 26.3762 29.8347 27.0625 29.5171V34.75H20.625ZM24.07 20.7065C24.3724 20.6458 24.6176 20.3659 24.5626 19.9721C24.5778 18.2617 25.9737 16.875 27.6875 16.875C29.4137 16.875 30.7971 18.2732 30.8124 19.9721C30.7579 20.3629 30.9996 20.6452 31.305 20.7065C33.269 21.101 34.75 22.8125 34.75 24.6875C34.75 26.8896 32.8037 28.75 30.5 28.75C29.7249 28.75 28.9746 28.5229 28.3125 28.0915V26.0112L31.717 24.309C32.0257 24.1546 32.1509 23.7792 31.9966 23.4704C31.8421 23.1617 31.4665 23.0365 31.1581 23.1909L28.3125 24.6138C28.3125 24.0874 28.3125 20.8018 28.3125 20C28.3125 19.6548 28.0326 19.375 27.6875 19.375C27.3424 19.375 27.0625 19.6548 27.0625 20V22.2411L26.2544 21.433C26.0103 21.189 25.6147 21.189 25.3705 21.433C25.1264 21.6771 25.1264 22.0728 25.3705 22.3169L27.0625 24.0089V28.0915C26.4004 28.5229 25.6501 28.75 24.875 28.75C22.5713 28.75 20.625 26.8896 20.625 24.6875C20.625 22.8125 22.106 21.101 24.07 20.7065ZM8.695 20.7065C8.99706 20.6458 9.24262 20.3665 9.18762 19.9721C9.20288 18.2731 10.5849 16.875 12.3125 16.875C14.0262 16.875 15.4222 18.2617 15.4374 19.9721C15.3828 20.3635 15.6253 20.6453 15.93 20.7065C17.894 21.101 19.375 22.8125 19.375 24.6875C19.375 26.8896 17.4287 28.75 15.125 28.75C14.3499 28.75 13.5996 28.5229 12.9375 28.0915V27.7589L14.6294 26.067C14.8735 25.8229 14.8735 25.4272 14.6294 25.1831C14.3853 24.9391 13.9897 24.9391 13.7455 25.1831L12.9375 25.9911V21.875C12.9375 21.5298 12.6576 21.25 12.3125 21.25C11.9674 21.25 11.6875 21.5298 11.6875 21.875V24.6138L8.842 23.191C8.53325 23.0366 8.15788 23.1618 8.0035 23.4705C7.84912 23.7793 7.97425 24.1547 8.28306 24.3091L11.6875 26.0112V28.0914C11.0254 28.5229 10.2751 28.75 9.5 28.75C7.19631 28.75 5.25 26.8896 5.25 24.6875C5.25 22.8125 6.731 21.101 8.695 20.7065Z" fill="#77B82A"/>
<path d="M28 10.8125C28.3452 10.8125 28.625 10.5327 28.625 10.1875C28.625 9.84232 28.3452 9.5625 28 9.5625C27.6548 9.5625 27.375 9.84232 27.375 10.1875C27.375 10.5327 27.6548 10.8125 28 10.8125Z" fill="#77B82A"/>
</g>
</svg>
