<svg width="34" height="34" viewBox="0 0 34 34" fill="none" xmlns="http://www.w3.org/2000/svg">
<g clip-path="url(#clip0_581_740)">
<path d="M18.5746 13.8752H15.3959V10.6508C15.3959 10.2326 15.0537 9.89038 14.6354 9.89038C14.2172 9.89038 13.875 10.2326 13.875 10.6508V13.8752H10.6506C10.2323 13.8752 9.89014 14.2174 9.89014 14.6357C9.89014 15.0539 10.2323 15.3961 10.6506 15.3961H13.875V18.5825C13.875 19.0007 14.2172 19.3429 14.6354 19.3429C15.0537 19.3429 15.3959 19.0007 15.3959 18.5825V15.3961H18.5746C18.9929 15.3961 19.3351 15.0539 19.3351 14.6357C19.3351 14.2174 19.0005 13.8752 18.5746 13.8752Z" fill="white"/>
<path d="M22.7499 6.42275C18.2479 1.92842 10.9247 1.92842 6.43032 6.42275C1.93599 10.9171 1.93599 18.2404 6.43032 22.7423C10.9399 27.2366 18.2403 27.2366 22.7499 22.7423C27.2442 18.248 27.2442 10.9247 22.7499 6.42275ZM21.67 21.67C17.7612 25.5712 11.4038 25.5788 7.50258 21.67C3.5938 17.7613 3.5938 11.4038 7.50258 7.50261C11.419 3.60144 17.7536 3.60144 21.67 7.50261C25.5788 11.4038 25.5788 17.7613 21.67 21.67Z" fill="white"/>
<path d="M33.1836 29.2137C33.176 29.2061 33.1684 29.1985 33.1607 29.1909L26.6968 22.7118C31.1835 16.0273 29.4041 6.96259 22.7196 2.47586C16.0351 -2.01087 6.9704 -0.231391 2.48367 6.45308C-2.00306 13.1376 -0.223578 22.2023 6.46089 26.689C8.57498 28.1111 11.0237 28.9476 13.5636 29.1301C13.9058 29.1529 14.248 29.1681 14.5826 29.1681C17.48 29.1681 20.3089 28.3088 22.712 26.6966L29.1759 33.1605C30.271 34.2708 32.0505 34.2784 33.1531 33.191C34.2634 32.0959 34.271 30.3164 33.1836 29.2137ZM22.347 25.092C16.537 29.3887 8.35444 28.1567 4.06543 22.3544C-0.223578 16.552 1.00077 8.36184 6.8107 4.07283C12.6206 -0.216182 20.8032 1.00816 25.0922 6.8181C28.5067 11.4417 28.5067 17.7536 25.077 22.3772C24.309 23.4038 23.3888 24.324 22.347 25.092ZM32.0885 32.0883C31.8451 32.3316 31.5181 32.4685 31.1683 32.4685C30.8261 32.4685 30.4991 32.3316 30.2558 32.0883L23.9439 25.7765C24.2709 25.5027 24.5903 25.2137 24.9021 24.9019C25.2139 24.5901 25.5029 24.2707 25.7766 23.9437L32.0885 30.2556C32.5904 30.7575 32.5904 31.5788 32.0885 32.0883Z" fill="white"/>
</g>
<defs>
<clipPath id="clip0_581_740">
<rect width="34" height="34" fill="white"/>
</clipPath>
</defs>
</svg>
